<?xml version="1.0" encoding="UTF-8" standalone="no"?>
<!DOCTYPE svg PUBLIC "-//W3C//DTD SVG 1.1//EN"
 "http://www.w3.org/Graphics/SVG/1.1/DTD/svg11.dtd">
<!-- Generated by graphviz version 12.2.1 (0)
 -->
<!-- Title: fen_subsystems Pages: 1 -->
<svg width="1094pt" height="1472pt"
 viewBox="0.00 0.00 1094.00 1472.38" xmlns="http://www.w3.org/2000/svg" xmlns:xlink="http://www.w3.org/1999/xlink">
<g id="graph0" class="graph" transform="scale(1 1) rotate(0) translate(4 1468.38)">
<title>fen_subsystems</title>
<polygon fill="white" stroke="none" points="-4,4 -4,-1468.38 1090,-1468.38 1090,4 -4,4"/>
<!-- cli -->
<g id="node1" class="node">
<title>cli</title>
<polygon fill="lightblue" stroke="black" points="412.25,-1251.04 335.5,-1251.04 335.5,-1205.54 412.25,-1205.54 412.25,-1251.04"/>
<text text-anchor="middle" x="373.88" y="-1233.74" font-family="monospace" font-size="14.00">CLI</text>
<text text-anchor="middle" x="373.88" y="-1214.99" font-family="monospace" font-size="14.00">2 modules</text>
</g>
<!-- core -->
<g id="node2" class="node">
<title>core</title>
<polygon fill="palegreen" stroke="black" points="646.5,-582.04 569.75,-582.04 569.75,-536.54 646.5,-536.54 646.5,-582.04"/>
<text text-anchor="middle" x="608.12" y="-564.74" font-family="monospace" font-size="14.00">core</text>
<text text-anchor="middle" x="608.12" y="-545.99" font-family="monospace" font-size="14.00">6 modules</text>
</g>
<!-- cli&#45;&gt;core -->
<g id="edge1" class="edge">
<title>cli&#45;&gt;core</title>
<path fill="none" stroke="black" d="M380.64,-1205.33C396.8,-1140.84 443.68,-952.47 479.75,-795.29 496.64,-721.71 475.31,-693.03 515.75,-629.29 526.76,-611.94 543.66,-597.23 559.95,-585.84"/>
<polygon fill="black" stroke="black" points="561.79,-588.83 568.16,-580.37 557.9,-583 561.79,-588.83"/>
</g>
<!-- core.extensions -->
<g id="node3" class="node">
<title>core.extensions</title>
<polygon fill="palegreen" stroke="black" points="853.75,-773.04 736.5,-773.04 736.5,-727.54 853.75,-727.54 853.75,-773.04"/>
<text text-anchor="middle" x="795.12" y="-755.74" font-family="monospace" font-size="14.00">core.extensions</text>
<text text-anchor="middle" x="795.12" y="-736.99" font-family="monospace" font-size="14.00">22 modules</text>
</g>
<!-- cli&#45;&gt;core.extensions -->
<g id="edge2" class="edge">
<title>cli&#45;&gt;core.extensions</title>
<path fill="none" stroke="black" d="M377.97,-1205.21C387.17,-1146.16 419.94,-988.65 515.75,-909.29 580.67,-855.5 629.08,-911.08 700.5,-866.29 733.35,-845.68 759.83,-809.45 776.13,-782.95"/>
<polygon fill="black" stroke="black" points="778.98,-785 781.1,-774.62 772.97,-781.41 778.98,-785"/>
</g>
<!-- core.llm -->
<g id="node4" class="node">
<title>core.llm</title>
<polygon fill="palegreen" stroke="black" points="966.5,-773.04 889.75,-773.04 889.75,-727.54 966.5,-727.54 966.5,-773.04"/>
<text text-anchor="middle" x="928.12" y="-755.74" font-family="monospace" font-size="14.00">core.llm</text>
<text text-anchor="middle" x="928.12" y="-736.99" font-family="monospace" font-size="14.00">4 modules</text>
</g>
<!-- cli&#45;&gt;core.llm -->
<g id="edge3" class="edge">
<title>cli&#45;&gt;core.llm</title>
<path fill="none" stroke="black" d="M412.7,-1221.4C497.25,-1205.96 694.66,-1169.55 700.5,-1165.29 834.75,-1067.19 898.43,-864.55 919.17,-784.19"/>
<polygon fill="black" stroke="black" points="922.5,-785.27 921.55,-774.71 915.72,-783.56 922.5,-785.27"/>
</g>
<!-- extension.tui -->
<g id="node19" class="node">
<title>extension.tui</title>
<polygon fill="lightyellow" stroke="black" points="663.38,-1398.04 552.88,-1398.04 552.88,-1352.54 663.38,-1352.54 663.38,-1398.04"/>
<text text-anchor="middle" x="608.12" y="-1380.74" font-family="monospace" font-size="14.00">extension: tui</text>
<text text-anchor="middle" x="608.12" y="-1361.99" font-family="monospace" font-size="14.00">12 modules</text>
</g>
<!-- cli&#45;&gt;extension.tui -->
<g id="edge4" class="edge">
<title>cli&#45;&gt;extension.tui</title>
<path fill="none" stroke="black" d="M399.8,-1251.27C426.82,-1275.31 471.95,-1312.99 515.75,-1338.29 524.15,-1343.14 533.31,-1347.65 542.48,-1351.75"/>
<polygon fill="black" stroke="black" points="540.83,-1354.85 551.4,-1355.58 543.6,-1348.42 540.83,-1354.85"/>
</g>
<!-- util -->
<g id="node23" class="node">
<title>util</title>
<polygon fill="white" stroke="black" points="1086,-964.04 1002.5,-964.04 1002.5,-918.54 1086,-918.54 1086,-964.04"/>
<text text-anchor="middle" x="1044.25" y="-946.74" font-family="monospace" font-size="14.00">util</text>
<text text-anchor="middle" x="1044.25" y="-927.99" font-family="monospace" font-size="14.00">10 modules</text>
</g>
<!-- cli&#45;&gt;util -->
<g id="edge5" class="edge">
<title>cli&#45;&gt;util</title>
<path fill="none" stroke="black" d="M412.59,-1250.04C440.16,-1264.64 479.01,-1282.56 515.75,-1290.29 663.26,-1321.31 713.46,-1317.43 853.75,-1262.29 909.09,-1240.54 930.48,-1237.59 966.5,-1190.29 1016.22,-1124.98 1034.02,-1027.15 1040.17,-975.72"/>
<polygon fill="black" stroke="black" points="1043.64,-976.11 1041.26,-965.79 1036.69,-975.34 1043.64,-976.11"/>
</g>
<!-- core&#45;&gt;core.extensions -->
<g id="edge6" class="edge">
<title>core&#45;&gt;core.extensions</title>
<path fill="none" stroke="black" d="M646.77,-559.76C664.75,-564.5 685.54,-573.46 700.5,-587.29 726.78,-611.57 718.16,-628.56 736.5,-659.29 748.46,-679.33 763.71,-700.89 775.52,-718.16"/>
<polygon fill="black" stroke="black" points="772.34,-719.7 780.83,-726.02 778.14,-715.78 772.34,-719.7"/>
</g>
<!-- core&#45;&gt;core.llm -->
<g id="edge7" class="edge">
<title>core&#45;&gt;core.llm</title>
<path fill="none" stroke="black" d="M646.57,-576.01C663.32,-583.82 683.16,-593.54 700.5,-603.29 766.96,-640.64 840.4,-689.84 885.16,-720.77"/>
<polygon fill="black" stroke="black" points="883.08,-723.58 893.29,-726.41 887.07,-717.83 883.08,-723.58"/>
</g>
<!-- core&#45;&gt;util -->
<g id="edge8" class="edge">
<title>core&#45;&gt;util</title>
<path fill="none" stroke="black" d="M646.67,-563.36C696.39,-569.94 785.72,-585.93 853.75,-621.29 912.4,-651.77 929.4,-663.58 966.5,-718.29 1006.98,-777.98 1028.09,-861.12 1037.32,-907.17"/>
<polygon fill="black" stroke="black" points="1033.86,-907.66 1039.18,-916.82 1040.73,-906.34 1033.86,-907.66"/>
</g>
<!-- core.extensions&#45;&gt;core -->
<g id="edge9" class="edge">
<title>core.extensions&#45;&gt;core</title>
<path fill="none" stroke="black" d="M770.55,-727.25C759.65,-713.08 746.84,-694.62 736.5,-677.29 718.16,-646.56 726.78,-629.57 700.5,-605.29 688.35,-594.06 672.34,-586.03 657.12,-579.91"/>
<polygon fill="black" stroke="black" points="658.78,-576.79 648.19,-576.49 656.28,-583.33 658.78,-576.79"/>
</g>
<!-- core.extensions&#45;&gt;core.llm -->
<g id="edge10" class="edge">
<title>core.extensions&#45;&gt;core.llm</title>
<path fill="none" stroke="black" d="M853.96,-743.58C862.07,-743.49 870.33,-743.54 878.25,-743.73"/>
<polygon fill="black" stroke="black" points="877.92,-747.22 888.03,-744.06 878.15,-740.23 877.92,-747.22"/>
</g>
<!-- core.extensions&#45;&gt;util -->
<g id="edge11" class="edge">
<title>core.extensions&#45;&gt;util</title>
<path fill="none" stroke="black" d="M825.93,-773.32C870.65,-807.88 955.1,-873.16 1004.53,-911.36"/>
<polygon fill="black" stroke="black" points="1002.09,-913.89 1012.14,-917.24 1006.37,-908.35 1002.09,-913.89"/>
</g>
<!-- core.llm&#45;&gt;core.extensions -->
<g id="edge12" class="edge">
<title>core.llm&#45;&gt;core.extensions</title>
<path fill="none" stroke="black" d="M889.54,-756.46C881.91,-756.79 873.66,-756.98 865.33,-757.03"/>
<polygon fill="black" stroke="black" points="865.49,-753.53 855.48,-757 865.47,-760.53 865.49,-753.53"/>
</g>
<!-- core.llm&#45;&gt;util -->
<g id="edge13" class="edge">
<title>core.llm&#45;&gt;util</title>
<path fill="none" stroke="black" d="M942.89,-773.32C963.03,-807.02 1000.61,-869.93 1023.63,-908.46"/>
<polygon fill="black" stroke="black" points="1020.52,-910.08 1028.66,-916.87 1026.53,-906.49 1020.52,-910.08"/>
</g>
<!-- extension.agent_state -->
<g id="node5" class="node">
<title>extension.agent_state</title>
<polygon fill="lightyellow" stroke="black" points="690.38,-1258.04 525.88,-1258.04 525.88,-1212.54 690.38,-1212.54 690.38,-1258.04"/>
<text text-anchor="middle" x="608.12" y="-1240.74" font-family="monospace" font-size="14.00">extension: agent_state</text>
<text text-anchor="middle" x="608.12" y="-1221.99" font-family="monospace" font-size="14.00">2 modules</text>
</g>
<!-- extension.agent_state&#45;&gt;core.extensions -->
<g id="edge14" class="edge">
<title>extension.agent_state&#45;&gt;core.extensions</title>
<path fill="none" stroke="black" d="M650.94,-1212.28C668.75,-1200.45 688.22,-1184.47 700.5,-1165.29 779.7,-1041.59 792.35,-859.65 794.05,-784.59"/>
<polygon fill="black" stroke="black" points="797.54,-785.06 794.21,-775 790.54,-784.94 797.54,-785.06"/>
</g>
<!-- extension.agent_state&#45;&gt;util -->
<g id="edge15" class="edge">
<title>extension.agent_state&#45;&gt;util</title>
<path fill="none" stroke="black" d="M690.68,-1238.29C740.96,-1236.59 804.93,-1227.74 853.75,-1198.29 942.98,-1144.46 1003.34,-1031.12 1029.12,-974.69"/>
<polygon fill="black" stroke="black" points="1032.31,-976.13 1033.19,-965.57 1025.92,-973.27 1032.31,-976.13"/>
</g>
<!-- extension.builtin_commands -->
<g id="node6" class="node">
<title>extension.builtin_commands</title>
<polygon fill="lightyellow" stroke="black" points="215.12,-1251.04 16.88,-1251.04 16.88,-1205.54 215.12,-1205.54 215.12,-1251.04"/>
<text text-anchor="middle" x="116" y="-1233.74" font-family="monospace" font-size="14.00">extension: builtin_commands</text>
<text text-anchor="middle" x="116" y="-1214.99" font-family="monospace" font-size="14.00">13 modules</text>
</g>
<!-- extension.builtin_commands&#45;&gt;cli -->
<g id="edge16" class="edge">
<title>extension.builtin_commands&#45;&gt;cli</title>
<path fill="none" stroke="black" d="M215.56,-1228.29C252.64,-1228.29 293.19,-1228.29 323.84,-1228.29"/>
<polygon fill="black" stroke="black" points="323.56,-1231.79 333.56,-1228.29 323.56,-1224.79 323.56,-1231.79"/>
</g>
<!-- extension.builtin_commands&#45;&gt;core.extensions -->
<g id="edge17" class="edge">
<title>extension.builtin_commands&#45;&gt;core.extensions</title>
<path fill="none" stroke="black" d="M134.86,-1205.29C186.34,-1140.72 342.45,-956.58 515.75,-866.29 590.43,-827.38 624.54,-860.62 700.5,-824.29 723.26,-813.4 745.55,-796.12 762.67,-781"/>
<polygon fill="black" stroke="black" points="764.95,-783.66 770,-774.35 760.25,-778.48 764.95,-783.66"/>
</g>
<!-- extension.builtin_commands&#45;&gt;util -->
<g id="edge18" class="edge">
<title>extension.builtin_commands&#45;&gt;util</title>
<path fill="none" stroke="black" d="M154.49,-1251.53C223.08,-1292.57 374.72,-1376.41 515.75,-1407.29 662.5,-1439.41 705.22,-1431.81 853.75,-1409.29 905.63,-1401.42 931.8,-1413.64 966.5,-1374.29 1018.87,-1314.89 1036.76,-1067.45 1041.67,-975.71"/>
<polygon fill="black" stroke="black" points="1045.16,-976 1042.17,-965.84 1038.16,-975.64 1045.16,-976"/>
</g>
<!-- extension.builtin_tools -->
<g id="node7" class="node">
<title>extension.builtin_tools</title>
<polygon fill="lightyellow" stroke="black" points="462.88,-531.04 284.88,-531.04 284.88,-485.54 462.88,-485.54 462.88,-531.04"/>
<text text-anchor="middle" x="373.88" y="-513.74" font-family="monospace" font-size="14.00">extension: builtin_tools</text>
<text text-anchor="middle" x="373.88" y="-494.99" font-family="monospace" font-size="14.00">11 modules</text>
</g>
<!-- extension.builtin_tools&#45;&gt;core -->
<g id="edge19" class="edge">
<title>extension.builtin_tools&#45;&gt;core</title>
<path fill="none" stroke="black" d="M463.34,-527.71C495.68,-534.81 531.05,-542.58 558.62,-548.63"/>
<polygon fill="black" stroke="black" points="557.55,-551.98 568.06,-550.71 559.05,-545.14 557.55,-551.98"/>
</g>
<!-- extension.builtin_tools&#45;&gt;core.extensions -->
<g id="edge20" class="edge">
<title>extension.builtin_tools&#45;&gt;core.extensions</title>
<path fill="none" stroke="black" d="M463.31,-489.73C533.94,-480.09 632.08,-478.88 700.5,-527.29 762.7,-571.29 783.76,-664.95 790.75,-715.76"/>
<polygon fill="black" stroke="black" points="787.27,-716.12 791.99,-725.61 794.22,-715.25 787.27,-716.12"/>
</g>
<!-- extension.builtin_tools&#45;&gt;util -->
<g id="edge21" class="edge">
<title>extension.builtin_tools&#45;&gt;util</title>
<path fill="none" stroke="black" d="M386.85,-485.14C407.42,-448.23 453.36,-377.36 515.75,-349.29 656.25,-286.06 727.68,-337.72 853.75,-426.29 910.28,-466 933.46,-472.62 966.5,-533.29 1034.75,-658.6 1043.34,-834.1 1043.73,-907.22"/>
<polygon fill="black" stroke="black" points="1040.23,-906.94 1043.73,-916.94 1047.23,-906.94 1040.23,-906.94"/>
</g>
<!-- extension.default_prompt -->
<g id="node8" class="node">
<title>extension.default_prompt</title>
<polygon fill="lightyellow" stroke="black" points="700.5,-1156.04 515.75,-1156.04 515.75,-1110.54 700.5,-1110.54 700.5,-1156.04"/>
<text text-anchor="middle" x="608.12" y="-1138.74" font-family="monospace" font-size="14.00">extension: default_prompt</text>
<text text-anchor="middle" x="608.12" y="-1119.99" font-family="monospace" font-size="14.00">2 modules</text>
</g>
<!-- extension.default_prompt&#45;&gt;core.extensions -->
<g id="edge22" class="edge">
<title>extension.default_prompt&#45;&gt;core.extensions</title>
<path fill="none" stroke="black" d="M690.26,-1110.27C693.97,-1107.6 697.42,-1104.61 700.5,-1101.29 784.2,-1010.95 794.69,-854.2 794.95,-784.92"/>
<polygon fill="black" stroke="black" points="798.45,-784.91 794.91,-774.93 791.45,-784.94 798.45,-784.91"/>
</g>
<!-- extension.default_prompt&#45;&gt;util -->
<g id="edge23" class="edge">
<title>extension.default_prompt&#45;&gt;util</title>
<path fill="none" stroke="black" d="M694.37,-1110.11C768.92,-1087.93 878.69,-1050.58 966.5,-1001.29 981.22,-993.02 996.12,-982.09 1008.83,-971.82"/>
<polygon fill="black" stroke="black" points="1011.03,-974.54 1016.5,-965.47 1006.56,-969.15 1011.03,-974.54"/>
</g>
<!-- extension.docs -->
<g id="node9" class="node">
<title>extension.docs</title>
<polygon fill="lightyellow" stroke="black" points="432.5,-786.04 315.25,-786.04 315.25,-740.54 432.5,-740.54 432.5,-786.04"/>
<text text-anchor="middle" x="373.88" y="-768.74" font-family="monospace" font-size="14.00">extension: docs</text>
<text text-anchor="middle" x="373.88" y="-749.99" font-family="monospace" font-size="14.00">2 modules</text>
</g>
<!-- extension.docs&#45;&gt;core -->
<g id="edge24" class="edge">
<title>extension.docs&#45;&gt;core</title>
<path fill="none" stroke="black" d="M432.88,-747.69C449.68,-740.89 466.93,-731.38 479.75,-718.29 509.6,-687.8 489.9,-663.23 515.75,-629.29 527.89,-613.34 544.55,-599.14 560.32,-587.77"/>
<polygon fill="black" stroke="black" points="562.01,-590.86 568.22,-582.27 558.01,-585.11 562.01,-590.86"/>
</g>
<!-- extension.docs&#45;&gt;core.extensions -->
<g id="edge25" class="edge">
<title>extension.docs&#45;&gt;core.extensions</title>
<path fill="none" stroke="black" d="M432.85,-763.2C497.99,-762.87 606.88,-761.64 700.5,-757.29 708.36,-756.92 716.58,-756.44 724.75,-755.91"/>
<polygon fill="black" stroke="black" points="724.97,-759.4 734.71,-755.23 724.5,-752.42 724.97,-759.4"/>
</g>
<!-- extension.docs&#45;&gt;util -->
<g id="edge26" class="edge">
<title>extension.docs&#45;&gt;util</title>
<path fill="none" stroke="black" d="M379.61,-786.3C399.31,-880.98 475.63,-1236.84 515.75,-1267.29 575.94,-1312.96 785.8,-1263.33 853.75,-1230.29 911.16,-1202.37 928.66,-1192.7 966.5,-1141.29 1004.28,-1089.95 1025.88,-1017.71 1036.02,-975.57"/>
<polygon fill="black" stroke="black" points="1039.39,-976.52 1038.24,-965.99 1032.57,-974.94 1039.39,-976.52"/>
</g>
<!-- extension.handoff -->
<g id="node10" class="node">
<title>extension.handoff</title>
<polygon fill="lightyellow" stroke="black" points="676.88,-748.04 539.38,-748.04 539.38,-702.54 676.88,-702.54 676.88,-748.04"/>
<text text-anchor="middle" x="608.12" y="-730.74" font-family="monospace" font-size="14.00">extension: handoff</text>
<text text-anchor="middle" x="608.12" y="-711.99" font-family="monospace" font-size="14.00">1 modules</text>
</g>
<!-- extension.handoff&#45;&gt;core.extensions -->
<g id="edge27" class="edge">
<title>extension.handoff&#45;&gt;core.extensions</title>
<path fill="none" stroke="black" d="M677.22,-734.49C692.81,-736.59 709.39,-738.84 725.02,-740.95"/>
<polygon fill="black" stroke="black" points="724.32,-744.38 734.7,-742.26 725.26,-737.45 724.32,-744.38"/>
</g>
<!-- extension.mem -->
<g id="node11" class="node">
<title>extension.mem</title>
<polygon fill="lightyellow" stroke="black" points="663.38,-684.04 552.88,-684.04 552.88,-638.54 663.38,-638.54 663.38,-684.04"/>
<text text-anchor="middle" x="608.12" y="-666.74" font-family="monospace" font-size="14.00">extension: mem</text>
<text text-anchor="middle" x="608.12" y="-647.99" font-family="monospace" font-size="14.00">2 modules</text>
</g>
<!-- extension.mem&#45;&gt;core.extensions -->
<g id="edge28" class="edge">
<title>extension.mem&#45;&gt;core.extensions</title>
<path fill="none" stroke="black" d="M663.51,-678.22C675.87,-682.65 688.8,-687.75 700.5,-693.29 717.29,-701.23 734.89,-711.4 750.24,-720.95"/>
<polygon fill="black" stroke="black" points="748.37,-723.91 758.69,-726.3 752.11,-717.99 748.37,-723.91"/>
</g>
<!-- extension.print -->
<g id="node12" class="node">
<title>extension.print</title>
<polygon fill="lightyellow" stroke="black" points="435.88,-709.04 311.88,-709.04 311.88,-663.54 435.88,-663.54 435.88,-709.04"/>
<text text-anchor="middle" x="373.88" y="-691.74" font-family="monospace" font-size="14.00">extension: print</text>
<text text-anchor="middle" x="373.88" y="-672.99" font-family="monospace" font-size="14.00">1 modules</text>
</g>
<!-- extension.print&#45;&gt;core -->
<g id="edge29" class="edge">
<title>extension.print&#45;&gt;core</title>
<path fill="none" stroke="black" d="M436.16,-671.93C451.38,-666.49 466.98,-659.13 479.75,-649.29 502.3,-631.9 493.6,-614.18 515.75,-596.29 528.29,-586.16 543.96,-578.48 558.77,-572.81"/>
<polygon fill="black" stroke="black" points="559.67,-576.2 567.91,-569.55 557.32,-569.61 559.67,-576.2"/>
</g>
<!-- extension.print&#45;&gt;core.extensions -->
<g id="edge30" class="edge">
<title>extension.print&#45;&gt;core.extensions</title>
<path fill="none" stroke="black" d="M436.28,-666.56C450.72,-661.39 465.93,-655.51 479.75,-649.29 496.44,-641.77 498.03,-633.88 515.75,-629.29 595.24,-608.69 626.78,-593.12 700.5,-629.29 710.42,-634.15 746.98,-683.79 771.37,-717.96"/>
<polygon fill="black" stroke="black" points="768.37,-719.78 777.02,-725.9 774.08,-715.72 768.37,-719.78"/>
</g>
<!-- extension.provider_anthropic -->
<g id="node13" class="node">
<title>extension.provider_anthropic</title>
<polygon fill="lightyellow" stroke="black" points="479.75,-137.04 268,-137.04 268,-91.54 479.75,-91.54 479.75,-137.04"/>
<text text-anchor="middle" x="373.88" y="-119.74" font-family="monospace" font-size="14.00">extension: provider_anthropic</text>
<text text-anchor="middle" x="373.88" y="-100.99" font-family="monospace" font-size="14.00">2 modules</text>
</g>
<!-- extension.provider_anthropic&#45;&gt;core -->
<g id="edge31" class="edge">
<title>extension.provider_anthropic&#45;&gt;core</title>
<path fill="none" stroke="black" d="M395.84,-137.26C419.66,-164.6 458.04,-212.56 479.75,-260.29 508.68,-323.87 488.86,-348.81 515.75,-413.29 533.23,-455.19 562.12,-498.75 582.73,-527.25"/>
<polygon fill="black" stroke="black" points="579.75,-529.1 588.48,-535.1 585.39,-524.97 579.75,-529.1"/>
</g>
<!-- extension.provider_anthropic&#45;&gt;core.extensions -->
<g id="edge32" class="edge">
<title>extension.provider_anthropic&#45;&gt;core.extensions</title>
<path fill="none" stroke="black" d="M479.98,-106.64C562.71,-103.07 669.11,-104.67 700.5,-133.29 744.08,-173.02 781.26,-591.55 791.4,-715.74"/>
<polygon fill="black" stroke="black" points="787.9,-715.95 792.2,-725.63 794.88,-715.38 787.9,-715.95"/>
</g>
<!-- extension.provider_anthropic&#45;&gt;core.llm -->
<g id="edge33" class="edge">
<title>extension.provider_anthropic&#45;&gt;core.llm</title>
<path fill="none" stroke="black" d="M443.72,-91.11C513.5,-72.05 622.07,-54.96 700.5,-101.29 821.98,-173.03 805.43,-246.73 853.75,-379.29 897.23,-498.58 916.89,-649.36 923.91,-715.97"/>
<polygon fill="black" stroke="black" points="920.39,-715.94 924.88,-725.53 927.35,-715.23 920.39,-715.94"/>
</g>
<!-- extension.provider_anthropic&#45;&gt;util -->
<g id="edge34" class="edge">
<title>extension.provider_anthropic&#45;&gt;util</title>
<path fill="none" stroke="black" d="M430.72,-91.05C456.17,-81.66 486.99,-71.96 515.75,-67.29 718.02,-34.43 840.89,-2.37 966.5,-164.29 1012.62,-223.74 1036.47,-764.53 1041.99,-907.01"/>
<polygon fill="black" stroke="black" points="1038.49,-907.06 1042.37,-916.92 1045.48,-906.79 1038.49,-907.06"/>
</g>
<!-- util.http -->
<g id="node24" class="node">
<title>util.http</title>
<polygon fill="white" stroke="black" points="646.5,-188.04 569.75,-188.04 569.75,-142.54 646.5,-142.54 646.5,-188.04"/>
<text text-anchor="middle" x="608.12" y="-170.74" font-family="monospace" font-size="14.00">util.http</text>
<text text-anchor="middle" x="608.12" y="-151.99" font-family="monospace" font-size="14.00">3 modules</text>
</g>
<!-- extension.provider_anthropic&#45;&gt;util.http -->
<g id="edge35" class="edge">
<title>extension.provider_anthropic&#45;&gt;util.http</title>
<path fill="none" stroke="black" d="M480.13,-137.4C507.44,-143.4 535.56,-149.57 558.37,-154.58"/>
<polygon fill="black" stroke="black" points="557.46,-157.96 567.98,-156.69 558.96,-151.13 557.46,-157.96"/>
</g>
<!-- extension.provider_openai -->
<g id="node14" class="node">
<title>extension.provider_openai</title>
<polygon fill="lightyellow" stroke="black" points="469.62,-315.04 278.12,-315.04 278.12,-269.54 469.62,-269.54 469.62,-315.04"/>
<text text-anchor="middle" x="373.88" y="-297.74" font-family="monospace" font-size="14.00">extension: provider_openai</text>
<text text-anchor="middle" x="373.88" y="-278.99" font-family="monospace" font-size="14.00">4 modules</text>
</g>
<!-- extension.provider_openai&#45;&gt;core -->
<g id="edge36" class="edge">
<title>extension.provider_openai&#45;&gt;core</title>
<path fill="none" stroke="black" d="M395.08,-315.51C436.79,-363.47 532.47,-473.46 579.71,-527.77"/>
<polygon fill="black" stroke="black" points="576.94,-529.91 586.14,-535.16 582.22,-525.32 576.94,-529.91"/>
</g>
<!-- extension.provider_openai&#45;&gt;core.extensions -->
<g id="edge37" class="edge">
<title>extension.provider_openai&#45;&gt;core.extensions</title>
<path fill="none" stroke="black" d="M394.89,-315.2C420.24,-342.74 466.58,-388.36 515.75,-413.29 590.95,-451.4 638.56,-399.09 700.5,-456.29 775.4,-525.45 790.68,-654.26 793.59,-715.81"/>
<polygon fill="black" stroke="black" points="790.09,-715.81 793.96,-725.67 797.08,-715.55 790.09,-715.81"/>
</g>
<!-- extension.provider_openai&#45;&gt;core.llm -->
<g id="edge38" class="edge">
<title>extension.provider_openai&#45;&gt;core.llm</title>
<path fill="none" stroke="black" d="M470.01,-288.13C539.71,-289.71 633.46,-301.95 700.5,-349.29 832.49,-442.49 897.31,-638.39 918.76,-716.8"/>
<polygon fill="black" stroke="black" points="915.26,-717.26 921.22,-726.02 922.03,-715.46 915.26,-717.26"/>
</g>
<!-- extension.provider_openai&#45;&gt;util -->
<g id="edge39" class="edge">
<title>extension.provider_openai&#45;&gt;util</title>
<path fill="none" stroke="black" d="M469.96,-287.68C485.27,-287.1 500.94,-286.6 515.75,-286.29 728.28,-281.76 864.2,-259.94 966.5,-446.29 1010.44,-526.33 1033.94,-808.12 1040.96,-906.82"/>
<polygon fill="black" stroke="black" points="1037.46,-906.95 1041.65,-916.68 1044.44,-906.46 1037.46,-906.95"/>
</g>
<!-- extension.provider_openai&#45;&gt;util.http -->
<g id="edge40" class="edge">
<title>extension.provider_openai&#45;&gt;util.http</title>
<path fill="none" stroke="black" d="M417.2,-269.14C457.33,-247.2 517.54,-214.27 559.37,-191.4"/>
<polygon fill="black" stroke="black" points="560.89,-194.56 567.99,-186.69 557.53,-188.41 560.89,-194.56"/>
</g>
<!-- extension.provider_openai_codex -->
<g id="node15" class="node">
<title>extension.provider_openai_codex</title>
<polygon fill="lightyellow" stroke="black" points="232,-315.04 0,-315.04 0,-269.54 232,-269.54 232,-315.04"/>
<text text-anchor="middle" x="116" y="-297.74" font-family="monospace" font-size="14.00">extension: provider_openai_codex</text>
<text text-anchor="middle" x="116" y="-278.99" font-family="monospace" font-size="14.00">5 modules</text>
</g>
<!-- extension.provider_openai_codex&#45;&gt;core -->
<g id="edge41" class="edge">
<title>extension.provider_openai_codex&#45;&gt;core</title>
<path fill="none" stroke="black" d="M123.1,-315.26C138,-366.24 181.52,-488.46 268,-540.29 315.53,-568.77 476.08,-565.67 558.06,-562.01"/>
<polygon fill="black" stroke="black" points="557.99,-565.52 567.82,-561.55 557.66,-558.53 557.99,-565.52"/>
</g>
<!-- extension.provider_openai_codex&#45;&gt;core.extensions -->
<g id="edge42" class="edge">
<title>extension.provider_openai_codex&#45;&gt;core.extensions</title>
<path fill="none" stroke="black" d="M166.93,-315.48C241.42,-349.26 386.73,-412.02 515.75,-449.29 596.04,-472.47 637.11,-429.82 700.5,-484.29 770.01,-544.01 787.93,-658.61 792.53,-715.9"/>
<polygon fill="black" stroke="black" points="789.03,-715.98 793.22,-725.71 796.01,-715.49 789.03,-715.98"/>
</g>
<!-- extension.provider_openai_codex&#45;&gt;extension.provider_openai -->
<g id="edge43" class="edge">
<title>extension.provider_openai_codex&#45;&gt;extension.provider_openai</title>
<path fill="none" stroke="black" d="M232.21,-292.29C243.65,-292.29 255.23,-292.29 266.58,-292.29"/>
<polygon fill="black" stroke="black" points="266.31,-295.79 276.31,-292.29 266.31,-288.79 266.31,-295.79"/>
</g>
<!-- extension.provider_openai_codex&#45;&gt;util -->
<g id="edge44" class="edge">
<title>extension.provider_openai_codex&#45;&gt;util</title>
<path fill="none" stroke="black" d="M126.87,-269.18C146.79,-225.46 196.1,-130.67 268,-82.29 396.65,4.29 452.06,-0.29 607.12,-0.29 607.12,-0.29 607.12,-0.29 796.12,-0.29 880.75,-0.29 918.81,-15.38 966.5,-85.29 1013.53,-154.21 1036.97,-756.26 1042.14,-907.12"/>
<polygon fill="black" stroke="black" points="1038.63,-906.98 1042.47,-916.85 1045.63,-906.74 1038.63,-906.98"/>
</g>
<!-- extension.provider_openai_codex&#45;&gt;util.http -->
<g id="edge45" class="edge">
<title>extension.provider_openai_codex&#45;&gt;util.http</title>
<path fill="none" stroke="black" d="M146.9,-269.14C176.07,-247.9 222.56,-217.5 268,-202.29 367.07,-169.11 490.64,-164.09 557.9,-164.17"/>
<polygon fill="black" stroke="black" points="557.85,-167.67 567.87,-164.23 557.89,-160.67 557.85,-167.67"/>
</g>
<!-- extension.session_jsonl -->
<g id="node16" class="node">
<title>extension.session_jsonl</title>
<polygon fill="lightyellow" stroke="black" points="697.12,-1092.04 519.12,-1092.04 519.12,-1046.54 697.12,-1046.54 697.12,-1092.04"/>
<text text-anchor="middle" x="608.12" y="-1074.74" font-family="monospace" font-size="14.00">extension: session_jsonl</text>
<text text-anchor="middle" x="608.12" y="-1055.99" font-family="monospace" font-size="14.00">2 modules</text>
</g>
<!-- extension.session_jsonl&#45;&gt;core.extensions -->
<g id="edge46" class="edge">
<title>extension.session_jsonl&#45;&gt;core.extensions</title>
<path fill="none" stroke="black" d="M690.04,-1046.06C693.8,-1043.44 697.33,-1040.53 700.5,-1037.29 769.61,-966.68 787.7,-844.43 792.44,-784.88"/>
<polygon fill="black" stroke="black" points="795.93,-785.24 793.14,-775.02 788.94,-784.75 795.93,-785.24"/>
</g>
<!-- extension.session_jsonl&#45;&gt;util -->
<g id="edge47" class="edge">
<title>extension.session_jsonl&#45;&gt;util</title>
<path fill="none" stroke="black" d="M697.32,-1050.23C770.38,-1033.47 876.44,-1006.85 966.5,-975.29 974.82,-972.37 983.49,-968.94 991.88,-965.39"/>
<polygon fill="black" stroke="black" points="993.14,-968.66 1000.92,-961.47 990.36,-962.23 993.14,-968.66"/>
</g>
<!-- extension.skills -->
<g id="node17" class="node">
<title>extension.skills</title>
<polygon fill="lightyellow" stroke="black" points="673.5,-1028.04 542.75,-1028.04 542.75,-982.54 673.5,-982.54 673.5,-1028.04"/>
<text text-anchor="middle" x="608.12" y="-1010.74" font-family="monospace" font-size="14.00">extension: skills</text>
<text text-anchor="middle" x="608.12" y="-991.99" font-family="monospace" font-size="14.00">2 modules</text>
</g>
<!-- extension.skills&#45;&gt;core.extensions -->
<g id="edge48" class="edge">
<title>extension.skills&#45;&gt;core.extensions</title>
<path fill="none" stroke="black" d="M673.94,-990.31C683.64,-985.99 692.91,-980.43 700.5,-973.29 755.3,-921.71 779.26,-833.05 788.7,-784.51"/>
<polygon fill="black" stroke="black" points="792.11,-785.32 790.47,-774.86 785.22,-784.06 792.11,-785.32"/>
</g>
<!-- extension.skills&#45;&gt;util -->
<g id="edge49" class="edge">
<title>extension.skills&#45;&gt;util</title>
<path fill="none" stroke="black" d="M673.81,-997.06C745.48,-987.74 864.45,-971.73 966.5,-955.29 974.5,-954 982.95,-952.55 991.2,-951.08"/>
<polygon fill="black" stroke="black" points="991.57,-954.57 1000.79,-949.35 990.33,-947.68 991.57,-954.57"/>
</g>
<!-- extension.stdio -->
<g id="node18" class="node">
<title>extension.stdio</title>
<polygon fill="lightyellow" stroke="black" points="670.12,-964.04 546.12,-964.04 546.12,-918.54 670.12,-918.54 670.12,-964.04"/>
<text text-anchor="middle" x="608.12" y="-946.74" font-family="monospace" font-size="14.00">extension: stdio</text>
<text text-anchor="middle" x="608.12" y="-927.99" font-family="monospace" font-size="14.00">1 modules</text>
</g>
<!-- extension.stdio&#45;&gt;core.extensions -->
<g id="edge50" class="edge">
<title>extension.stdio&#45;&gt;core.extensions</title>
<path fill="none" stroke="black" d="M670.24,-922.93C681.03,-917.97 691.63,-911.82 700.5,-904.29 739.22,-871.37 766.49,-818.23 781.26,-783.78"/>
<polygon fill="black" stroke="black" points="784.43,-785.27 785.03,-774.7 777.96,-782.59 784.43,-785.27"/>
</g>
<!-- extension.stdio&#45;&gt;util -->
<g id="edge51" class="edge">
<title>extension.stdio&#45;&gt;util</title>
<path fill="none" stroke="black" d="M670.4,-941.29C756.06,-941.29 910.12,-941.29 990.77,-941.29"/>
<polygon fill="black" stroke="black" points="990.61,-944.79 1000.61,-941.29 990.61,-937.79 990.61,-944.79"/>
</g>
<!-- extension.tui&#45;&gt;core.extensions -->
<g id="edge52" class="edge">
<title>extension.tui&#45;&gt;core.extensions</title>
<path fill="none" stroke="black" d="M635.07,-1352.21C656.12,-1331.96 684.79,-1300.61 700.5,-1267.29 779.85,-1099.03 792.19,-870.75 793.93,-784.86"/>
<polygon fill="black" stroke="black" points="797.43,-785.04 794.09,-774.99 790.43,-784.93 797.43,-785.04"/>
</g>
<!-- extension.tui&#45;&gt;util -->
<g id="edge53" class="edge">
<title>extension.tui&#45;&gt;util</title>
<path fill="none" stroke="black" d="M663.67,-1387.61C741.45,-1401.67 883.93,-1413.91 966.5,-1338.29 1019.71,-1289.55 1036.96,-1063.07 1041.68,-975.75"/>
<polygon fill="black" stroke="black" points="1045.17,-976.06 1042.19,-965.89 1038.18,-975.7 1045.17,-976.06"/>
</g>
<!-- extension.web -->
<g id="node20" class="node">
<title>extension.web</title>
<polygon fill="lightyellow" stroke="black" points="663.38,-404.04 552.88,-404.04 552.88,-358.54 663.38,-358.54 663.38,-404.04"/>
<text text-anchor="middle" x="608.12" y="-386.74" font-family="monospace" font-size="14.00">extension: web</text>
<text text-anchor="middle" x="608.12" y="-367.99" font-family="monospace" font-size="14.00">6 modules</text>
</g>
<!-- extension.web&#45;&gt;core.extensions -->
<g id="edge54" class="edge">
<title>extension.web&#45;&gt;core.extensions</title>
<path fill="none" stroke="black" d="M663.5,-394.06C677.15,-399.55 690.68,-407.32 700.5,-418.29 720.76,-440.9 767.66,-635.99 786.29,-716.13"/>
<polygon fill="black" stroke="black" points="782.82,-716.66 788.49,-725.62 789.64,-715.08 782.82,-716.66"/>
</g>
<!-- extension.web&#45;&gt;util -->
<g id="edge55" class="edge">
<title>extension.web&#45;&gt;util</title>
<path fill="none" stroke="black" d="M663.78,-394.02C676.25,-398.01 689.16,-403.05 700.5,-409.29 836.92,-484.34 884.49,-504.93 966.5,-637.29 1020.41,-724.3 1036.53,-847.51 1041.29,-906.79"/>
<polygon fill="black" stroke="black" points="1037.79,-906.87 1042.01,-916.59 1044.77,-906.36 1037.79,-906.87"/>
</g>
<!-- other -->
<g id="node21" class="node">
<title>other</title>
<polygon fill="white" stroke="black" points="157.75,-1404.04 74.25,-1404.04 74.25,-1358.54 157.75,-1358.54 157.75,-1404.04"/>
<text text-anchor="middle" x="116" y="-1386.74" font-family="monospace" font-size="14.00">other</text>
<text text-anchor="middle" x="116" y="-1367.99" font-family="monospace" font-size="14.00">11 modules</text>
</g>
<!-- other&#45;&gt;cli -->
<g id="edge56" class="edge">
<title>other&#45;&gt;cli</title>
<path fill="none" stroke="black" d="M155.86,-1358.05C201.38,-1330.83 276.76,-1285.76 325.62,-1256.54"/>
<polygon fill="black" stroke="black" points="327.23,-1259.66 334.02,-1251.52 323.64,-1253.65 327.23,-1259.66"/>
</g>
<!-- other&#45;&gt;core -->
<g id="edge57" class="edge">
<title>other&#45;&gt;core</title>
<path fill="none" stroke="black" d="M149.29,-1358.04C176.71,-1336.23 214.34,-1300.96 232,-1260.29 285.73,-1136.54 183.33,-759.31 268,-654.29 277.3,-642.75 467.09,-594.18 558.6,-571.3"/>
<polygon fill="black" stroke="black" points="559.19,-574.76 568.05,-568.95 557.5,-567.97 559.19,-574.76"/>
</g>
<!-- other&#45;&gt;extension.tui -->
<g id="edge58" class="edge">
<title>other&#45;&gt;extension.tui</title>
<path fill="none" stroke="black" d="M157.94,-1380.78C242.79,-1379.75 438.45,-1377.35 541.27,-1376.09"/>
<polygon fill="black" stroke="black" points="541.26,-1379.59 551.22,-1375.97 541.18,-1372.59 541.26,-1379.59"/>
</g>
<!-- other&#45;&gt;util -->
<g id="edge59" class="edge">
<title>other&#45;&gt;util</title>
<path fill="none" stroke="black" d="M158.23,-1393.09C242.04,-1416 438.62,-1464.29 607.12,-1464.29 607.12,-1464.29 607.12,-1464.29 796.12,-1464.29 876.41,-1464.29 914.89,-1465.78 966.5,-1404.29 1021.25,-1339.05 1037.76,-1071.59 1041.98,-975.7"/>
<polygon fill="black" stroke="black" points="1045.47,-976.02 1042.39,-965.88 1038.47,-975.72 1045.47,-976.02"/>
</g>
<!-- testing -->
<g id="node22" class="node">
<title>testing</title>
<polygon fill="white" stroke="black" points="154.38,-576.04 77.62,-576.04 77.62,-530.54 154.38,-530.54 154.38,-576.04"/>
<text text-anchor="middle" x="116" y="-558.74" font-family="monospace" font-size="14.00">testing</text>
<text text-anchor="middle" x="116" y="-539.99" font-family="monospace" font-size="14.00">3 modules</text>
</g>
<!-- testing&#45;&gt;core -->
<g id="edge60" class="edge">
<title>testing&#45;&gt;core</title>
<path fill="none" stroke="black" d="M154.72,-559.68C185.18,-564.51 229.21,-570.73 268,-573.29 361.91,-579.48 385.78,-578.43 479.75,-573.29 505.71,-571.86 534.52,-568.82 558.16,-565.94"/>
<polygon fill="black" stroke="black" points="558.32,-569.44 567.81,-564.73 557.46,-562.5 558.32,-569.44"/>
</g>
<!-- testing&#45;&gt;core.extensions -->
<g id="edge61" class="edge">
<title>testing&#45;&gt;core.extensions</title>
<path fill="none" stroke="black" d="M123.19,-576.44C138.16,-627.16 181.61,-747.36 268,-795.29 416.46,-877.64 625.47,-817.29 729.72,-777.61"/>
<polygon fill="black" stroke="black" points="730.91,-780.9 738.98,-774.03 728.39,-774.37 730.91,-780.9"/>
</g>
<!-- testing&#45;&gt;extension.builtin_tools -->
<g id="edge62" class="edge">
<title>testing&#45;&gt;extension.builtin_tools</title>
<path fill="none" stroke="black" d="M154.76,-546.65C185.95,-541.16 231.71,-533.11 273.27,-525.8"/>
<polygon fill="black" stroke="black" points="273.84,-529.26 283.09,-524.08 272.63,-522.36 273.84,-529.26"/>
</g>
<!-- testing&#45;&gt;util -->
<g id="edge63" class="edge">
<title>testing&#45;&gt;util</title>
<path fill="none" stroke="black" d="M128.52,-530.16C162.69,-461.64 261.54,-264.22 268,-260.29 327.85,-223.8 757.95,-255.17 853.75,-283.29 908.83,-299.45 934.34,-298.74 966.5,-346.29 1029.14,-438.89 1040.7,-794.6 1042.79,-907.02"/>
<polygon fill="black" stroke="black" points="1039.29,-906.86 1042.96,-916.8 1046.29,-906.74 1039.29,-906.86"/>
</g>
</g>
</svg>
