<?xml version="1.0" encoding="UTF-8" standalone="no"?>
<!DOCTYPE svg PUBLIC "-//W3C//DTD SVG 1.1//EN"
 "http://www.w3.org/Graphics/SVG/1.1/DTD/svg11.dtd">
<!-- Generated by graphviz version 12.2.1 (0)
 -->
<!-- Title: fen_subsystems Pages: 1 -->
<svg width="1108pt" height="1214pt"
 viewBox="0.00 0.00 1107.50 1213.50" xmlns="http://www.w3.org/2000/svg" xmlns:xlink="http://www.w3.org/1999/xlink">
<g id="graph0" class="graph" transform="scale(1 1) rotate(0) translate(4 1209.5)">
<title>fen_subsystems</title>
<polygon fill="white" stroke="none" points="-4,4 -4,-1209.5 1103.5,-1209.5 1103.5,4 -4,4"/>
<!-- cli -->
<g id="node1" class="node">
<title>cli</title>
<polygon fill="lightblue" stroke="black" points="412.25,-1040.5 335.5,-1040.5 335.5,-995 412.25,-995 412.25,-1040.5"/>
<text text-anchor="middle" x="373.88" y="-1023.2" font-family="monospace" font-size="14.00">CLI</text>
<text text-anchor="middle" x="373.88" y="-1004.45" font-family="monospace" font-size="14.00">1 modules</text>
</g>
<!-- core -->
<g id="node2" class="node">
<title>core</title>
<polygon fill="palegreen" stroke="black" points="653.25,-951.5 576.5,-951.5 576.5,-906 653.25,-906 653.25,-951.5"/>
<text text-anchor="middle" x="614.88" y="-934.2" font-family="monospace" font-size="14.00">core</text>
<text text-anchor="middle" x="614.88" y="-915.45" font-family="monospace" font-size="14.00">6 modules</text>
</g>
<!-- cli&#45;&gt;core -->
<g id="edge1" class="edge">
<title>cli&#45;&gt;core</title>
<path fill="none" stroke="black" d="M412.75,-1003.65C454.09,-988.25 520.4,-963.56 565.49,-946.77"/>
<polygon fill="black" stroke="black" points="566.61,-950.08 574.76,-943.31 564.17,-943.52 566.61,-950.08"/>
</g>
<!-- core.extensions -->
<g id="node3" class="node">
<title>core.extensions</title>
<polygon fill="palegreen" stroke="black" points="867.25,-715.5 750,-715.5 750,-670 867.25,-670 867.25,-715.5"/>
<text text-anchor="middle" x="808.62" y="-698.2" font-family="monospace" font-size="14.00">core.extensions</text>
<text text-anchor="middle" x="808.62" y="-679.45" font-family="monospace" font-size="14.00">22 modules</text>
</g>
<!-- cli&#45;&gt;core.extensions -->
<g id="edge2" class="edge">
<title>cli&#45;&gt;core.extensions</title>
<path fill="none" stroke="black" d="M404.79,-994.64C481.83,-937.05 682.3,-787.19 768.39,-722.83"/>
<polygon fill="black" stroke="black" points="770.45,-725.66 776.36,-716.87 766.26,-720.05 770.45,-725.66"/>
</g>
<!-- core.llm -->
<g id="node4" class="node">
<title>core.llm</title>
<polygon fill="palegreen" stroke="black" points="980,-664.5 903.25,-664.5 903.25,-619 980,-619 980,-664.5"/>
<text text-anchor="middle" x="941.62" y="-647.2" font-family="monospace" font-size="14.00">core.llm</text>
<text text-anchor="middle" x="941.62" y="-628.45" font-family="monospace" font-size="14.00">4 modules</text>
</g>
<!-- cli&#45;&gt;core.llm -->
<g id="edge3" class="edge">
<title>cli&#45;&gt;core.llm</title>
<path fill="none" stroke="black" d="M408.96,-994.51C507.76,-929.08 788.19,-743.36 897.37,-671.06"/>
<polygon fill="black" stroke="black" points="899.11,-674.11 905.51,-665.67 895.24,-668.27 899.11,-674.11"/>
</g>
<!-- util -->
<g id="node22" class="node">
<title>util</title>
<polygon fill="white" stroke="black" points="1099.5,-504.5 1016,-504.5 1016,-459 1099.5,-459 1099.5,-504.5"/>
<text text-anchor="middle" x="1057.75" y="-487.2" font-family="monospace" font-size="14.00">util</text>
<text text-anchor="middle" x="1057.75" y="-468.45" font-family="monospace" font-size="14.00">10 modules</text>
</g>
<!-- cli&#45;&gt;util -->
<g id="edge4" class="edge">
<title>cli&#45;&gt;util</title>
<path fill="none" stroke="black" d="M403.26,-994.72C512.63,-909 896.15,-608.41 1019.34,-511.86"/>
<polygon fill="black" stroke="black" points="1021.19,-514.85 1026.9,-505.93 1016.87,-509.34 1021.19,-514.85"/>
</g>
<!-- core&#45;&gt;core.extensions -->
<g id="edge5" class="edge">
<title>core&#45;&gt;core.extensions</title>
<path fill="none" stroke="black" d="M631.57,-905.53C663.56,-862.78 736.8,-772.27 778.02,-724.14"/>
<polygon fill="black" stroke="black" points="780.46,-726.68 784.34,-716.82 775.16,-722.1 780.46,-726.68"/>
</g>
<!-- core&#45;&gt;core.llm -->
<g id="edge6" class="edge">
<title>core&#45;&gt;core.llm</title>
<path fill="none" stroke="black" d="M641.34,-905.51C700.08,-853.91 841.35,-729.83 907,-672.16"/>
<polygon fill="black" stroke="black" points="909.03,-675.04 914.23,-665.81 904.41,-669.78 909.03,-675.04"/>
</g>
<!-- core&#45;&gt;util -->
<g id="edge7" class="edge">
<title>core&#45;&gt;util</title>
<path fill="none" stroke="black" d="M637.75,-905.66C711.46,-831.26 942.81,-597.76 1026.85,-512.94"/>
<polygon fill="black" stroke="black" points="1029.13,-515.61 1033.68,-506.05 1024.15,-510.69 1029.13,-515.61"/>
</g>
<!-- core.extensions&#45;&gt;core -->
<g id="edge8" class="edge">
<title>core.extensions&#45;&gt;core</title>
<path fill="none" stroke="black" d="M792.02,-715.86C760.09,-758.52 686.84,-849.05 645.56,-897.25"/>
<polygon fill="black" stroke="black" points="643.12,-894.74 639.23,-904.59 648.42,-899.31 643.12,-894.74"/>
</g>
<!-- core.extensions&#45;&gt;core.llm -->
<g id="edge9" class="edge">
<title>core.extensions&#45;&gt;core.llm</title>
<path fill="none" stroke="black" d="M852.88,-669.52C865.58,-664.15 879.53,-658.67 892.51,-653.95"/>
<polygon fill="black" stroke="black" points="893.45,-657.33 901.7,-650.69 891.11,-650.73 893.45,-657.33"/>
</g>
<!-- core.extensions&#45;&gt;util -->
<g id="edge10" class="edge">
<title>core.extensions&#45;&gt;util</title>
<path fill="none" stroke="black" d="M835.76,-669.77C880.97,-631.48 971.69,-554.64 1022.04,-512"/>
<polygon fill="black" stroke="black" points="1024.12,-514.82 1029.49,-505.68 1019.6,-509.47 1024.12,-514.82"/>
</g>
<!-- core.llm&#45;&gt;core.extensions -->
<g id="edge11" class="edge">
<title>core.llm&#45;&gt;core.extensions</title>
<path fill="none" stroke="black" d="M903.04,-662.55C895.15,-665.97 886.6,-669.49 877.97,-672.89"/>
<polygon fill="black" stroke="black" points="876.95,-669.53 868.88,-676.4 879.47,-676.06 876.95,-669.53"/>
</g>
<!-- core.llm&#45;&gt;util -->
<g id="edge12" class="edge">
<title>core.llm&#45;&gt;util</title>
<path fill="none" stroke="black" d="M958.98,-618.83C978.58,-591.34 1011.57,-545.1 1033.74,-514.01"/>
<polygon fill="black" stroke="black" points="1036.41,-516.3 1039.36,-506.12 1030.71,-512.23 1036.41,-516.3"/>
</g>
<!-- extension.agent_state -->
<g id="node5" class="node">
<title>extension.agent_state</title>
<polygon fill="lightyellow" stroke="black" points="697.12,-1205.5 532.62,-1205.5 532.62,-1160 697.12,-1160 697.12,-1205.5"/>
<text text-anchor="middle" x="614.88" y="-1188.2" font-family="monospace" font-size="14.00">extension: agent_state</text>
<text text-anchor="middle" x="614.88" y="-1169.45" font-family="monospace" font-size="14.00">2 modules</text>
</g>
<!-- extension.agent_state&#45;&gt;core.extensions -->
<g id="edge13" class="edge">
<title>extension.agent_state&#45;&gt;core.extensions</title>
<path fill="none" stroke="black" d="M624.87,-1159.77C655.78,-1080.77 757.81,-820.04 794.41,-726.51"/>
<polygon fill="black" stroke="black" points="797.61,-727.96 797.99,-717.37 791.09,-725.41 797.61,-727.96"/>
</g>
<!-- extension.agent_state&#45;&gt;util -->
<g id="edge14" class="edge">
<title>extension.agent_state&#45;&gt;util</title>
<path fill="none" stroke="black" d="M629.36,-1159.83C694.54,-1056.66 960.78,-635.24 1037.17,-514.33"/>
<polygon fill="black" stroke="black" points="1039.96,-516.46 1042.35,-506.13 1034.04,-512.72 1039.96,-516.46"/>
</g>
<!-- extension.builtin_commands -->
<g id="node6" class="node">
<title>extension.builtin_commands</title>
<polygon fill="lightyellow" stroke="black" points="714,-607.5 515.75,-607.5 515.75,-562 714,-562 714,-607.5"/>
<text text-anchor="middle" x="614.88" y="-590.2" font-family="monospace" font-size="14.00">extension: builtin_commands</text>
<text text-anchor="middle" x="614.88" y="-571.45" font-family="monospace" font-size="14.00">13 modules</text>
</g>
<!-- extension.builtin_commands&#45;&gt;core.extensions -->
<g id="edge15" class="edge">
<title>extension.builtin_commands&#45;&gt;core.extensions</title>
<path fill="none" stroke="black" d="M657.01,-607.92C686.2,-624.36 725.58,-646.54 756.75,-664.1"/>
<polygon fill="black" stroke="black" points="754.81,-667.02 765.24,-668.88 758.24,-660.92 754.81,-667.02"/>
</g>
<!-- extension.builtin_commands&#45;&gt;util -->
<g id="edge16" class="edge">
<title>extension.builtin_commands&#45;&gt;util</title>
<path fill="none" stroke="black" d="M714.26,-561.63C804.2,-540.72 933.19,-510.72 1004.77,-494.07"/>
<polygon fill="black" stroke="black" points="1005.33,-497.53 1014.28,-491.86 1003.75,-490.72 1005.33,-497.53"/>
</g>
<!-- extension.builtin_tools -->
<g id="node7" class="node">
<title>extension.builtin_tools</title>
<polygon fill="lightyellow" stroke="black" points="462.88,-976.5 284.88,-976.5 284.88,-931 462.88,-931 462.88,-976.5"/>
<text text-anchor="middle" x="373.88" y="-959.2" font-family="monospace" font-size="14.00">extension: builtin_tools</text>
<text text-anchor="middle" x="373.88" y="-940.45" font-family="monospace" font-size="14.00">11 modules</text>
</g>
<!-- extension.builtin_tools&#45;&gt;core -->
<g id="edge17" class="edge">
<title>extension.builtin_tools&#45;&gt;core</title>
<path fill="none" stroke="black" d="M463.19,-944.51C497.59,-940.91 535.69,-936.93 564.97,-933.87"/>
<polygon fill="black" stroke="black" points="565.05,-937.38 574.63,-932.85 564.32,-930.41 565.05,-937.38"/>
</g>
<!-- extension.builtin_tools&#45;&gt;core.extensions -->
<g id="edge18" class="edge">
<title>extension.builtin_tools&#45;&gt;core.extensions</title>
<path fill="none" stroke="black" d="M412.46,-930.59C491.9,-882.9 673.55,-773.84 760.51,-721.64"/>
<polygon fill="black" stroke="black" points="762.06,-724.79 768.83,-716.64 758.46,-718.79 762.06,-724.79"/>
</g>
<!-- extension.default_prompt -->
<g id="node8" class="node">
<title>extension.default_prompt</title>
<polygon fill="lightyellow" stroke="black" points="707.25,-543.5 522.5,-543.5 522.5,-498 707.25,-498 707.25,-543.5"/>
<text text-anchor="middle" x="614.88" y="-526.2" font-family="monospace" font-size="14.00">extension: default_prompt</text>
<text text-anchor="middle" x="614.88" y="-507.45" font-family="monospace" font-size="14.00">2 modules</text>
</g>
<!-- extension.default_prompt&#45;&gt;core.extensions -->
<g id="edge19" class="edge">
<title>extension.default_prompt&#45;&gt;core.extensions</title>
<path fill="none" stroke="black" d="M641.74,-543.95C675.85,-574.55 735.98,-628.49 773.71,-662.33"/>
<polygon fill="black" stroke="black" points="770.96,-664.56 780.74,-668.64 775.64,-659.35 770.96,-664.56"/>
</g>
<!-- extension.default_prompt&#45;&gt;util -->
<g id="edge20" class="edge">
<title>extension.default_prompt&#45;&gt;util</title>
<path fill="none" stroke="black" d="M707.72,-512.57C797.64,-504.66 930.86,-492.92 1004.31,-486.46"/>
<polygon fill="black" stroke="black" points="1004.4,-489.96 1014.06,-485.6 1003.79,-482.99 1004.4,-489.96"/>
</g>
<!-- extension.docs -->
<g id="node9" class="node">
<title>extension.docs</title>
<polygon fill="lightyellow" stroke="black" points="432.5,-1104.5 315.25,-1104.5 315.25,-1059 432.5,-1059 432.5,-1104.5"/>
<text text-anchor="middle" x="373.88" y="-1087.2" font-family="monospace" font-size="14.00">extension: docs</text>
<text text-anchor="middle" x="373.88" y="-1068.45" font-family="monospace" font-size="14.00">2 modules</text>
</g>
<!-- extension.docs&#45;&gt;core -->
<g id="edge21" class="edge">
<title>extension.docs&#45;&gt;core</title>
<path fill="none" stroke="black" d="M411.17,-1058.51C453.15,-1031.64 522.3,-987.37 567.97,-958.13"/>
<polygon fill="black" stroke="black" points="569.82,-961.11 576.35,-952.77 566.04,-955.21 569.82,-961.11"/>
</g>
<!-- extension.docs&#45;&gt;core.extensions -->
<g id="edge22" class="edge">
<title>extension.docs&#45;&gt;core.extensions</title>
<path fill="none" stroke="black" d="M399.77,-1058.58C474.45,-991.76 690.27,-798.65 774.44,-723.34"/>
<polygon fill="black" stroke="black" points="776.62,-726.08 781.74,-716.81 771.95,-720.87 776.62,-726.08"/>
</g>
<!-- extension.docs&#45;&gt;util -->
<g id="edge23" class="edge">
<title>extension.docs&#45;&gt;util</title>
<path fill="none" stroke="black" d="M400.26,-1058.6C506.47,-965.42 902.71,-617.78 1022.94,-512.29"/>
<polygon fill="black" stroke="black" points="1025.09,-515.06 1030.3,-505.83 1020.48,-509.8 1025.09,-515.06"/>
</g>
<!-- extension.handoff -->
<g id="node10" class="node">
<title>extension.handoff</title>
<polygon fill="lightyellow" stroke="black" points="683.62,-849.5 546.12,-849.5 546.12,-804 683.62,-804 683.62,-849.5"/>
<text text-anchor="middle" x="614.88" y="-832.2" font-family="monospace" font-size="14.00">extension: handoff</text>
<text text-anchor="middle" x="614.88" y="-813.45" font-family="monospace" font-size="14.00">1 modules</text>
</g>
<!-- extension.handoff&#45;&gt;core.extensions -->
<g id="edge24" class="edge">
<title>extension.handoff&#45;&gt;core.extensions</title>
<path fill="none" stroke="black" d="M648.84,-803.71C681.08,-781.18 730.31,-746.78 765.4,-722.26"/>
<polygon fill="black" stroke="black" points="767.02,-725.4 773.21,-716.8 763.01,-719.66 767.02,-725.4"/>
</g>
<!-- extension.mem -->
<g id="node11" class="node">
<title>extension.mem</title>
<polygon fill="lightyellow" stroke="black" points="670.12,-785.5 559.62,-785.5 559.62,-740 670.12,-740 670.12,-785.5"/>
<text text-anchor="middle" x="614.88" y="-768.2" font-family="monospace" font-size="14.00">extension: mem</text>
<text text-anchor="middle" x="614.88" y="-749.45" font-family="monospace" font-size="14.00">2 modules</text>
</g>
<!-- extension.mem&#45;&gt;core.extensions -->
<g id="edge25" class="edge">
<title>extension.mem&#45;&gt;core.extensions</title>
<path fill="none" stroke="black" d="M670.57,-742.78C691.78,-735.04 716.32,-726.08 738.71,-717.91"/>
<polygon fill="black" stroke="black" points="739.9,-721.2 748.09,-714.48 737.5,-714.62 739.9,-721.2"/>
</g>
<!-- extension.print -->
<g id="node12" class="node">
<title>extension.print</title>
<polygon fill="lightyellow" stroke="black" points="435.88,-836.5 311.88,-836.5 311.88,-791 435.88,-791 435.88,-836.5"/>
<text text-anchor="middle" x="373.88" y="-819.2" font-family="monospace" font-size="14.00">extension: print</text>
<text text-anchor="middle" x="373.88" y="-800.45" font-family="monospace" font-size="14.00">1 modules</text>
</g>
<!-- extension.print&#45;&gt;core -->
<g id="edge26" class="edge">
<title>extension.print&#45;&gt;core</title>
<path fill="none" stroke="black" d="M422.95,-836.88C464.55,-856.9 524.38,-885.69 565.93,-905.68"/>
<polygon fill="black" stroke="black" points="564.19,-908.73 574.72,-909.91 567.22,-902.42 564.19,-908.73"/>
</g>
<!-- extension.print&#45;&gt;core.extensions -->
<g id="edge27" class="edge">
<title>extension.print&#45;&gt;core.extensions</title>
<path fill="none" stroke="black" d="M436.16,-796.41C516.27,-774.12 655.01,-735.51 738.66,-712.22"/>
<polygon fill="black" stroke="black" points="739.43,-715.64 748.13,-709.59 737.56,-708.9 739.43,-715.64"/>
</g>
<!-- extension.provider_anthropic -->
<g id="node13" class="node">
<title>extension.provider_anthropic</title>
<polygon fill="lightyellow" stroke="black" points="479.75,-96.5 268,-96.5 268,-51 479.75,-51 479.75,-96.5"/>
<text text-anchor="middle" x="373.88" y="-79.2" font-family="monospace" font-size="14.00">extension: provider_anthropic</text>
<text text-anchor="middle" x="373.88" y="-60.45" font-family="monospace" font-size="14.00">2 modules</text>
</g>
<!-- extension.provider_anthropic&#45;&gt;core -->
<g id="edge28" class="edge">
<title>extension.provider_anthropic&#45;&gt;core</title>
<path fill="none" stroke="black" d="M381.27,-96.62C414.23,-214.53 564.96,-753.76 604.4,-894.87"/>
<polygon fill="black" stroke="black" points="600.99,-895.66 607.06,-904.35 607.73,-893.78 600.99,-895.66"/>
</g>
<!-- extension.provider_anthropic&#45;&gt;core.extensions -->
<g id="edge29" class="edge">
<title>extension.provider_anthropic&#45;&gt;core.extensions</title>
<path fill="none" stroke="black" d="M390.12,-96.89C456.71,-191.69 708.83,-550.66 786.02,-660.57"/>
<polygon fill="black" stroke="black" points="783.04,-662.42 791.66,-668.59 788.77,-658.39 783.04,-662.42"/>
</g>
<!-- extension.provider_anthropic&#45;&gt;core.llm -->
<g id="edge30" class="edge">
<title>extension.provider_anthropic&#45;&gt;core.llm</title>
<path fill="none" stroke="black" d="M396.83,-96.72C485.92,-185.85 808.81,-508.87 910.64,-610.75"/>
<polygon fill="black" stroke="black" points="908.08,-613.14 917.62,-617.74 913.03,-608.19 908.08,-613.14"/>
</g>
<!-- extension.provider_anthropic&#45;&gt;util -->
<g id="edge31" class="edge">
<title>extension.provider_anthropic&#45;&gt;util</title>
<path fill="none" stroke="black" d="M412.6,-96.85C529.78,-166.76 880.37,-375.93 1009.4,-452.9"/>
<polygon fill="black" stroke="black" points="1007.34,-455.75 1017.72,-457.87 1010.93,-449.74 1007.34,-455.75"/>
</g>
<!-- util.http -->
<g id="node23" class="node">
<title>util.http</title>
<polygon fill="white" stroke="black" points="653.25,-45.5 576.5,-45.5 576.5,0 653.25,0 653.25,-45.5"/>
<text text-anchor="middle" x="614.88" y="-28.2" font-family="monospace" font-size="14.00">util.http</text>
<text text-anchor="middle" x="614.88" y="-9.45" font-family="monospace" font-size="14.00">3 modules</text>
</g>
<!-- extension.provider_anthropic&#45;&gt;util.http -->
<g id="edge32" class="edge">
<title>extension.provider_anthropic&#45;&gt;util.http</title>
<path fill="none" stroke="black" d="M480.05,-51.31C509.67,-44.99 540.49,-38.41 565.07,-33.16"/>
<polygon fill="black" stroke="black" points="565.72,-36.6 574.77,-31.09 564.26,-29.76 565.72,-36.6"/>
</g>
<!-- extension.provider_openai -->
<g id="node14" class="node">
<title>extension.provider_openai</title>
<polygon fill="lightyellow" stroke="black" points="469.62,-300.5 278.12,-300.5 278.12,-255 469.62,-255 469.62,-300.5"/>
<text text-anchor="middle" x="373.88" y="-283.2" font-family="monospace" font-size="14.00">extension: provider_openai</text>
<text text-anchor="middle" x="373.88" y="-264.45" font-family="monospace" font-size="14.00">4 modules</text>
</g>
<!-- extension.provider_openai&#45;&gt;core -->
<g id="edge33" class="edge">
<title>extension.provider_openai&#45;&gt;core</title>
<path fill="none" stroke="black" d="M383.38,-300.92C419.31,-398.79 558.77,-778.65 601.42,-894.81"/>
<polygon fill="black" stroke="black" points="598.09,-895.92 604.82,-904.1 604.66,-893.5 598.09,-895.92"/>
</g>
<!-- extension.provider_openai&#45;&gt;core.extensions -->
<g id="edge34" class="edge">
<title>extension.provider_openai&#45;&gt;core.extensions</title>
<path fill="none" stroke="black" d="M398.18,-300.95C471.92,-371.34 693.09,-582.47 776.41,-662"/>
<polygon fill="black" stroke="black" points="773.75,-664.29 783.4,-668.67 778.58,-659.23 773.75,-664.29"/>
</g>
<!-- extension.provider_openai&#45;&gt;core.llm -->
<g id="edge35" class="edge">
<title>extension.provider_openai&#45;&gt;core.llm</title>
<path fill="none" stroke="black" d="M409.82,-300.8C508.96,-364.36 786.18,-542.09 895.99,-612.5"/>
<polygon fill="black" stroke="black" points="893.89,-615.3 904.2,-617.75 897.67,-609.41 893.89,-615.3"/>
</g>
<!-- extension.provider_openai&#45;&gt;util -->
<g id="edge36" class="edge">
<title>extension.provider_openai&#45;&gt;util</title>
<path fill="none" stroke="black" d="M451.66,-300.95C592.21,-342.88 884.99,-430.22 1004.85,-465.97"/>
<polygon fill="black" stroke="black" points="1003.53,-469.23 1014.11,-468.73 1005.53,-462.52 1003.53,-469.23"/>
</g>
<!-- extension.provider_openai&#45;&gt;util.http -->
<g id="edge37" class="edge">
<title>extension.provider_openai&#45;&gt;util.http</title>
<path fill="none" stroke="black" d="M396.51,-254.67C439.5,-208.8 535.74,-106.11 584.45,-54.15"/>
<polygon fill="black" stroke="black" points="586.8,-56.75 591.09,-47.07 581.69,-51.97 586.8,-56.75"/>
</g>
<!-- extension.provider_openai_codex -->
<g id="node15" class="node">
<title>extension.provider_openai_codex</title>
<polygon fill="lightyellow" stroke="black" points="232,-300.5 0,-300.5 0,-255 232,-255 232,-300.5"/>
<text text-anchor="middle" x="116" y="-283.2" font-family="monospace" font-size="14.00">extension: provider_openai_codex</text>
<text text-anchor="middle" x="116" y="-264.45" font-family="monospace" font-size="14.00">5 modules</text>
</g>
<!-- extension.provider_openai_codex&#45;&gt;core -->
<g id="edge38" class="edge">
<title>extension.provider_openai_codex&#45;&gt;core</title>
<path fill="none" stroke="black" d="M133.76,-300.92C209.14,-399.29 502.8,-782.49 590.2,-896.55"/>
<polygon fill="black" stroke="black" points="587.29,-898.51 596.15,-904.32 592.85,-894.25 587.29,-898.51"/>
</g>
<!-- extension.provider_openai_codex&#45;&gt;core.extensions -->
<g id="edge39" class="edge">
<title>extension.provider_openai_codex&#45;&gt;core.extensions</title>
<path fill="none" stroke="black" d="M154.72,-300.95C273.14,-371.91 630.28,-585.89 760.47,-663.9"/>
<polygon fill="black" stroke="black" points="758.5,-666.8 768.88,-668.93 762.1,-660.79 758.5,-666.8"/>
</g>
<!-- extension.provider_openai_codex&#45;&gt;extension.provider_openai -->
<g id="edge40" class="edge">
<title>extension.provider_openai_codex&#45;&gt;extension.provider_openai</title>
<path fill="none" stroke="black" d="M232.21,-277.75C243.65,-277.75 255.23,-277.75 266.58,-277.75"/>
<polygon fill="black" stroke="black" points="266.31,-281.25 276.31,-277.75 266.31,-274.25 266.31,-281.25"/>
</g>
<!-- extension.provider_openai_codex&#45;&gt;util -->
<g id="edge41" class="edge">
<title>extension.provider_openai_codex&#45;&gt;util</title>
<path fill="none" stroke="black" d="M223.11,-300.95C424.92,-344.67 854.63,-437.75 1004.7,-470.26"/>
<polygon fill="black" stroke="black" points="1003.86,-473.66 1014.37,-472.35 1005.34,-466.82 1003.86,-473.66"/>
</g>
<!-- extension.provider_openai_codex&#45;&gt;util.http -->
<g id="edge42" class="edge">
<title>extension.provider_openai_codex&#45;&gt;util.http</title>
<path fill="none" stroke="black" d="M161.15,-254.67C254.76,-206.82 469.29,-97.16 566.01,-47.73"/>
<polygon fill="black" stroke="black" points="567.44,-50.93 574.75,-43.26 564.25,-44.69 567.44,-50.93"/>
</g>
<!-- extension.session_jsonl -->
<g id="node16" class="node">
<title>extension.session_jsonl</title>
<polygon fill="lightyellow" stroke="black" points="703.88,-479.5 525.88,-479.5 525.88,-434 703.88,-434 703.88,-479.5"/>
<text text-anchor="middle" x="614.88" y="-462.2" font-family="monospace" font-size="14.00">extension: session_jsonl</text>
<text text-anchor="middle" x="614.88" y="-443.45" font-family="monospace" font-size="14.00">2 modules</text>
</g>
<!-- extension.session_jsonl&#45;&gt;core.extensions -->
<g id="edge43" class="edge">
<title>extension.session_jsonl&#45;&gt;core.extensions</title>
<path fill="none" stroke="black" d="M634.61,-479.81C669.05,-522.19 742.47,-612.56 781.68,-660.82"/>
<polygon fill="black" stroke="black" points="778.84,-662.87 787.86,-668.42 784.27,-658.46 778.84,-662.87"/>
</g>
<!-- extension.session_jsonl&#45;&gt;util -->
<g id="edge44" class="edge">
<title>extension.session_jsonl&#45;&gt;util</title>
<path fill="none" stroke="black" d="M704.23,-461.79C794.17,-466.87 929.92,-474.53 1004.32,-478.73"/>
<polygon fill="black" stroke="black" points="1004.02,-482.22 1014.2,-479.29 1004.42,-475.23 1004.02,-482.22"/>
</g>
<!-- extension.skills -->
<g id="node17" class="node">
<title>extension.skills</title>
<polygon fill="lightyellow" stroke="black" points="680.25,-415.5 549.5,-415.5 549.5,-370 680.25,-370 680.25,-415.5"/>
<text text-anchor="middle" x="614.88" y="-398.2" font-family="monospace" font-size="14.00">extension: skills</text>
<text text-anchor="middle" x="614.88" y="-379.45" font-family="monospace" font-size="14.00">2 modules</text>
</g>
<!-- extension.skills&#45;&gt;core.extensions -->
<g id="edge45" class="edge">
<title>extension.skills&#45;&gt;core.extensions</title>
<path fill="none" stroke="black" d="M630.6,-415.79C664.41,-468.69 747.68,-598.96 786.75,-660.09"/>
<polygon fill="black" stroke="black" points="783.7,-661.81 792.03,-668.35 789.6,-658.04 783.7,-661.81"/>
</g>
<!-- extension.skills&#45;&gt;util -->
<g id="edge46" class="edge">
<title>extension.skills&#45;&gt;util</title>
<path fill="none" stroke="black" d="M680.7,-405.98C768.84,-423.69 923.5,-454.77 1004.63,-471.08"/>
<polygon fill="black" stroke="black" points="1003.6,-474.44 1014.1,-472.98 1004.98,-467.58 1003.6,-474.44"/>
</g>
<!-- extension.stdio -->
<g id="node18" class="node">
<title>extension.stdio</title>
<polygon fill="lightyellow" stroke="black" points="676.88,-351.5 552.88,-351.5 552.88,-306 676.88,-306 676.88,-351.5"/>
<text text-anchor="middle" x="614.88" y="-334.2" font-family="monospace" font-size="14.00">extension: stdio</text>
<text text-anchor="middle" x="614.88" y="-315.45" font-family="monospace" font-size="14.00">1 modules</text>
</g>
<!-- extension.stdio&#45;&gt;core.extensions -->
<g id="edge47" class="edge">
<title>extension.stdio&#45;&gt;core.extensions</title>
<path fill="none" stroke="black" d="M628.02,-351.8C660.89,-414.21 751.76,-586.69 790.14,-659.57"/>
<polygon fill="black" stroke="black" points="786.95,-661.01 794.71,-668.23 793.14,-657.75 786.95,-661.01"/>
</g>
<!-- extension.stdio&#45;&gt;util -->
<g id="edge48" class="edge">
<title>extension.stdio&#45;&gt;util</title>
<path fill="none" stroke="black" d="M676.92,-350.19C764.43,-380.42 922.59,-435.06 1004.85,-463.47"/>
<polygon fill="black" stroke="black" points="1003.67,-466.77 1014.26,-466.73 1005.95,-460.15 1003.67,-466.77"/>
</g>
<!-- extension.tui -->
<g id="node19" class="node">
<title>extension.tui</title>
<polygon fill="lightyellow" stroke="black" points="670.12,-249.5 559.62,-249.5 559.62,-204 670.12,-204 670.12,-249.5"/>
<text text-anchor="middle" x="614.88" y="-232.2" font-family="monospace" font-size="14.00">extension: tui</text>
<text text-anchor="middle" x="614.88" y="-213.45" font-family="monospace" font-size="14.00">12 modules</text>
</g>
<!-- extension.tui&#45;&gt;core.extensions -->
<g id="edge49" class="edge">
<title>extension.tui&#45;&gt;core.extensions</title>
<path fill="none" stroke="black" d="M625.38,-249.86C656.72,-326.02 756.85,-569.36 793.78,-659.1"/>
<polygon fill="black" stroke="black" points="790.44,-660.19 797.48,-668.1 796.91,-657.52 790.44,-660.19"/>
</g>
<!-- extension.tui&#45;&gt;util -->
<g id="edge50" class="edge">
<title>extension.tui&#45;&gt;util</title>
<path fill="none" stroke="black" d="M654.96,-249.83C735.94,-296.46 918.88,-401.79 1007.61,-452.88"/>
<polygon fill="black" stroke="black" points="1005.71,-455.83 1016.13,-457.78 1009.21,-449.76 1005.71,-455.83"/>
</g>
<!-- extension.web -->
<g id="node20" class="node">
<title>extension.web</title>
<polygon fill="lightyellow" stroke="black" points="670.12,-185.5 559.62,-185.5 559.62,-140 670.12,-140 670.12,-185.5"/>
<text text-anchor="middle" x="614.88" y="-168.2" font-family="monospace" font-size="14.00">extension: web</text>
<text text-anchor="middle" x="614.88" y="-149.45" font-family="monospace" font-size="14.00">6 modules</text>
</g>
<!-- extension.web&#45;&gt;core.extensions -->
<g id="edge51" class="edge">
<title>extension.web&#45;&gt;core.extensions</title>
<path fill="none" stroke="black" d="M624.24,-185.86C654.64,-269.89 759.39,-559.42 795.37,-658.88"/>
<polygon fill="black" stroke="black" points="792.01,-659.88 798.7,-668.09 798.59,-657.5 792.01,-659.88"/>
</g>
<!-- extension.web&#45;&gt;util -->
<g id="edge52" class="edge">
<title>extension.web&#45;&gt;util</title>
<path fill="none" stroke="black" d="M647.08,-185.95C726.02,-242.8 929.03,-389.03 1016.57,-452.09"/>
<polygon fill="black" stroke="black" points="1014.28,-454.75 1024.44,-457.75 1018.37,-449.07 1014.28,-454.75"/>
</g>
<!-- testing -->
<g id="node21" class="node">
<title>testing</title>
<polygon fill="white" stroke="black" points="154.38,-1065.5 77.62,-1065.5 77.62,-1020 154.38,-1020 154.38,-1065.5"/>
<text text-anchor="middle" x="116" y="-1048.2" font-family="monospace" font-size="14.00">testing</text>
<text text-anchor="middle" x="116" y="-1029.45" font-family="monospace" font-size="14.00">3 modules</text>
</g>
<!-- testing&#45;&gt;core -->
<g id="edge53" class="edge">
<title>testing&#45;&gt;core</title>
<path fill="none" stroke="black" d="M154.73,-1033.9C244.34,-1013.42 465.86,-962.8 565.24,-940.09"/>
<polygon fill="black" stroke="black" points="565.72,-943.57 574.69,-937.93 564.16,-936.75 565.72,-943.57"/>
</g>
<!-- testing&#45;&gt;core.extensions -->
<g id="edge54" class="edge">
<title>testing&#45;&gt;core.extensions</title>
<path fill="none" stroke="black" d="M154.72,-1023.18C270.78,-964.53 616.14,-790.02 752.42,-721.15"/>
<polygon fill="black" stroke="black" points="753.94,-724.31 761.29,-716.67 750.78,-718.06 753.94,-724.31"/>
</g>
<!-- testing&#45;&gt;extension.builtin_tools -->
<g id="edge55" class="edge">
<title>testing&#45;&gt;extension.builtin_tools</title>
<path fill="none" stroke="black" d="M154.76,-1029.62C191.64,-1016.79 248.87,-996.88 295.46,-980.68"/>
<polygon fill="black" stroke="black" points="296.41,-984.05 304.71,-977.46 294.11,-977.44 296.41,-984.05"/>
</g>
<!-- testing&#45;&gt;util -->
<g id="edge56" class="edge">
<title>testing&#45;&gt;util</title>
<path fill="none" stroke="black" d="M154.67,-1019.71C304.16,-930.66 844.05,-609.05 1009.33,-510.59"/>
<polygon fill="black" stroke="black" points="1010.65,-513.88 1017.45,-505.75 1007.07,-507.87 1010.65,-513.88"/>
</g>
</g>
</svg>
