<?xml version="1.0" encoding="UTF-8" standalone="no"?>
<!DOCTYPE svg PUBLIC "-//W3C//DTD SVG 1.1//EN"
 "http://www.w3.org/Graphics/SVG/1.1/DTD/svg11.dtd">
<!-- Generated by graphviz version 12.2.1 (0)
 -->
<!-- Title: fen_subsystems Pages: 1 -->
<svg width="1108pt" height="1388pt"
 viewBox="0.00 0.00 1107.50 1388.05" xmlns="http://www.w3.org/2000/svg" xmlns:xlink="http://www.w3.org/1999/xlink">
<g id="graph0" class="graph" transform="scale(1 1) rotate(0) translate(4 1384.05)">
<title>fen_subsystems</title>
<polygon fill="white" stroke="none" points="-4,4 -4,-1384.05 1103.5,-1384.05 1103.5,4 -4,4"/>
<!-- cli -->
<g id="node1" class="node">
<title>cli</title>
<polygon fill="lightblue" stroke="black" points="412.25,-1110.8 335.5,-1110.8 335.5,-1065.3 412.25,-1065.3 412.25,-1110.8"/>
<text text-anchor="middle" x="373.88" y="-1093.5" font-family="monospace" font-size="14.00">CLI</text>
<text text-anchor="middle" x="373.88" y="-1074.75" font-family="monospace" font-size="14.00">1 modules</text>
</g>
<!-- core -->
<g id="node2" class="node">
<title>core</title>
<polygon fill="palegreen" stroke="black" points="653.25,-1021.8 576.5,-1021.8 576.5,-976.3 653.25,-976.3 653.25,-1021.8"/>
<text text-anchor="middle" x="614.88" y="-1004.5" font-family="monospace" font-size="14.00">core</text>
<text text-anchor="middle" x="614.88" y="-985.75" font-family="monospace" font-size="14.00">6 modules</text>
</g>
<!-- cli&#45;&gt;core -->
<g id="edge1" class="edge">
<title>cli&#45;&gt;core</title>
<path fill="none" stroke="black" d="M412.57,-1077.59C432.68,-1071.75 457.75,-1064.05 479.75,-1056.05 508.67,-1045.52 540.38,-1032.13 565.71,-1020.98"/>
<polygon fill="black" stroke="black" points="567.04,-1024.21 574.76,-1016.96 564.2,-1017.82 567.04,-1024.21"/>
</g>
<!-- core.extensions -->
<g id="node3" class="node">
<title>core.extensions</title>
<polygon fill="palegreen" stroke="black" points="867.25,-785.8 750,-785.8 750,-740.3 867.25,-740.3 867.25,-785.8"/>
<text text-anchor="middle" x="808.62" y="-768.5" font-family="monospace" font-size="14.00">core.extensions</text>
<text text-anchor="middle" x="808.62" y="-749.75" font-family="monospace" font-size="14.00">22 modules</text>
</g>
<!-- cli&#45;&gt;core.extensions -->
<g id="edge2" class="edge">
<title>cli&#45;&gt;core.extensions</title>
<path fill="none" stroke="black" d="M412.63,-1096.37C480.97,-1109.09 626.22,-1124.99 714,-1054.05 792.91,-990.27 806.18,-859.46 807.83,-797.3"/>
<polygon fill="black" stroke="black" points="811.33,-797.75 808,-787.69 804.33,-797.63 811.33,-797.75"/>
</g>
<!-- core.llm -->
<g id="node4" class="node">
<title>core.llm</title>
<polygon fill="palegreen" stroke="black" points="980,-734.8 903.25,-734.8 903.25,-689.3 980,-689.3 980,-734.8"/>
<text text-anchor="middle" x="941.62" y="-717.5" font-family="monospace" font-size="14.00">core.llm</text>
<text text-anchor="middle" x="941.62" y="-698.75" font-family="monospace" font-size="14.00">4 modules</text>
</g>
<!-- cli&#45;&gt;core.llm -->
<g id="edge3" class="edge">
<title>cli&#45;&gt;core.llm</title>
<path fill="none" stroke="black" d="M412.52,-1100.14C478.22,-1118.91 616.11,-1147.7 714,-1095.05 851.49,-1021.09 913.12,-825.27 932.99,-746.04"/>
<polygon fill="black" stroke="black" points="936.3,-747.24 935.27,-736.69 929.5,-745.58 936.3,-747.24"/>
</g>
<!-- util -->
<g id="node22" class="node">
<title>util</title>
<polygon fill="white" stroke="black" points="1099.5,-574.8 1016,-574.8 1016,-529.3 1099.5,-529.3 1099.5,-574.8"/>
<text text-anchor="middle" x="1057.75" y="-557.5" font-family="monospace" font-size="14.00">util</text>
<text text-anchor="middle" x="1057.75" y="-538.75" font-family="monospace" font-size="14.00">10 modules</text>
</g>
<!-- cli&#45;&gt;util -->
<g id="edge4" class="edge">
<title>cli&#45;&gt;util</title>
<path fill="none" stroke="black" d="M412.61,-1090.25C435.16,-1093.58 462.65,-1101.5 479.75,-1120.05 530.62,-1175.23 457.29,-1237.97 515.75,-1285.05 584.37,-1340.31 634.16,-1322.32 714,-1285.05 992.07,-1155.21 1045.15,-713.21 1054.74,-586.35"/>
<polygon fill="black" stroke="black" points="1058.21,-586.81 1055.43,-576.58 1051.23,-586.31 1058.21,-586.81"/>
</g>
<!-- core&#45;&gt;core.extensions -->
<g id="edge5" class="edge">
<title>core&#45;&gt;core.extensions</title>
<path fill="none" stroke="black" d="M653.74,-985.53C674.28,-979.49 698.55,-970.25 714,-953.05 756.64,-905.57 718.88,-869.76 750,-814.05 753.79,-807.27 758.52,-800.69 763.64,-794.61"/>
<polygon fill="black" stroke="black" points="766.22,-796.98 770.34,-787.22 761.03,-792.28 766.22,-796.98"/>
</g>
<!-- core&#45;&gt;core.llm -->
<g id="edge6" class="edge">
<title>core&#45;&gt;core.llm</title>
<path fill="none" stroke="black" d="M653.62,-988.19C673.13,-981.25 696.47,-970.75 714,-956.05 736.1,-937.51 731.21,-923.93 750,-902.05 795.96,-848.52 817.76,-845.32 867.25,-795.05 883.42,-778.62 900.52,-759.39 914.15,-743.58"/>
<polygon fill="black" stroke="black" points="916.5,-746.21 920.35,-736.34 911.18,-741.66 916.5,-746.21"/>
</g>
<!-- core&#45;&gt;util -->
<g id="edge7" class="edge">
<title>core&#45;&gt;util</title>
<path fill="none" stroke="black" d="M653.53,-986.76C728.49,-960.26 896.37,-890.27 980,-771.05 1020.65,-713.1 1041.66,-631.53 1050.83,-586.06"/>
<polygon fill="black" stroke="black" points="1054.21,-587.02 1052.68,-576.54 1047.34,-585.69 1054.21,-587.02"/>
</g>
<!-- core.extensions&#45;&gt;core -->
<g id="edge8" class="edge">
<title>core.extensions&#45;&gt;core</title>
<path fill="none" stroke="black" d="M788.38,-786.04C775.7,-798.57 759.72,-814.65 750,-832.05 718.88,-887.76 756.64,-923.57 714,-971.05 701.27,-985.22 682.54,-993.99 664.85,-998.79"/>
<polygon fill="black" stroke="black" points="664.19,-995.35 655.22,-1001 665.75,-1002.18 664.19,-995.35"/>
</g>
<!-- core.extensions&#45;&gt;core.llm -->
<g id="edge9" class="edge">
<title>core.extensions&#45;&gt;core.llm</title>
<path fill="none" stroke="black" d="M852.88,-739.81C865.58,-734.45 879.53,-728.97 892.51,-724.24"/>
<polygon fill="black" stroke="black" points="893.45,-727.63 901.7,-720.98 891.11,-721.03 893.45,-727.63"/>
</g>
<!-- core.extensions&#45;&gt;util -->
<g id="edge10" class="edge">
<title>core.extensions&#45;&gt;util</title>
<path fill="none" stroke="black" d="M867.61,-770.69C903.41,-772.25 948.39,-768.12 980,-744.05 1029.84,-706.1 1047.39,-630.67 1053.52,-586.5"/>
<polygon fill="black" stroke="black" points="1056.98,-587.04 1054.75,-576.69 1050.03,-586.18 1056.98,-587.04"/>
</g>
<!-- core.llm&#45;&gt;core.extensions -->
<g id="edge11" class="edge">
<title>core.llm&#45;&gt;core.extensions</title>
<path fill="none" stroke="black" d="M903.04,-732.85C895.15,-736.27 886.6,-739.79 877.97,-743.18"/>
<polygon fill="black" stroke="black" points="876.95,-739.83 868.88,-746.69 879.47,-746.36 876.95,-739.83"/>
</g>
<!-- core.llm&#45;&gt;util -->
<g id="edge12" class="edge">
<title>core.llm&#45;&gt;util</title>
<path fill="none" stroke="black" d="M958.98,-689.12C978.58,-661.64 1011.57,-615.39 1033.74,-584.31"/>
<polygon fill="black" stroke="black" points="1036.41,-586.59 1039.36,-576.42 1030.71,-582.53 1036.41,-586.59"/>
</g>
<!-- extension.agent_state -->
<g id="node5" class="node">
<title>extension.agent_state</title>
<polygon fill="lightyellow" stroke="black" points="697.12,-1275.8 532.62,-1275.8 532.62,-1230.3 697.12,-1230.3 697.12,-1275.8"/>
<text text-anchor="middle" x="614.88" y="-1258.5" font-family="monospace" font-size="14.00">extension: agent_state</text>
<text text-anchor="middle" x="614.88" y="-1239.75" font-family="monospace" font-size="14.00">2 modules</text>
</g>
<!-- extension.agent_state&#45;&gt;core.extensions -->
<g id="edge13" class="edge">
<title>extension.agent_state&#45;&gt;core.extensions</title>
<path fill="none" stroke="black" d="M697.46,-1230.3C703.62,-1226.29 709.27,-1221.58 714,-1216.05 768.35,-1152.43 796.25,-892.27 804.75,-797.65"/>
<polygon fill="black" stroke="black" points="808.24,-797.97 805.63,-787.7 801.26,-797.36 808.24,-797.97"/>
</g>
<!-- extension.agent_state&#45;&gt;util -->
<g id="edge14" class="edge">
<title>extension.agent_state&#45;&gt;util</title>
<path fill="none" stroke="black" d="M652.3,-1229.92C671.44,-1217.07 694.84,-1200.24 714,-1183.05 861.8,-1050.42 901.06,-1006.26 980,-824.05 1015.63,-741.8 1039.49,-638.42 1050.24,-585.96"/>
<polygon fill="black" stroke="black" points="1053.61,-586.94 1052.15,-576.44 1046.75,-585.56 1053.61,-586.94"/>
</g>
<!-- extension.builtin_commands -->
<g id="node6" class="node">
<title>extension.builtin_commands</title>
<polygon fill="lightyellow" stroke="black" points="714,-677.8 515.75,-677.8 515.75,-632.3 714,-632.3 714,-677.8"/>
<text text-anchor="middle" x="614.88" y="-660.5" font-family="monospace" font-size="14.00">extension: builtin_commands</text>
<text text-anchor="middle" x="614.88" y="-641.75" font-family="monospace" font-size="14.00">13 modules</text>
</g>
<!-- extension.builtin_commands&#45;&gt;core.extensions -->
<g id="edge15" class="edge">
<title>extension.builtin_commands&#45;&gt;core.extensions</title>
<path fill="none" stroke="black" d="M685.11,-678.26C695.01,-682.41 704.92,-687.03 714,-692.05 734.83,-703.55 756.12,-719.32 773.12,-733.07"/>
<polygon fill="black" stroke="black" points="770.48,-735.43 780.43,-739.08 774.93,-730.03 770.48,-735.43"/>
</g>
<!-- extension.builtin_commands&#45;&gt;util -->
<g id="edge16" class="edge">
<title>extension.builtin_commands&#45;&gt;util</title>
<path fill="none" stroke="black" d="M714.39,-634.81C787.87,-619.31 890.56,-596.79 980,-574.05 988.13,-571.98 996.7,-569.66 1005.05,-567.33"/>
<polygon fill="black" stroke="black" points="1005.73,-570.77 1014.39,-564.68 1003.82,-564.04 1005.73,-570.77"/>
</g>
<!-- extension.builtin_tools -->
<g id="node7" class="node">
<title>extension.builtin_tools</title>
<polygon fill="lightyellow" stroke="black" points="462.88,-1046.8 284.88,-1046.8 284.88,-1001.3 462.88,-1001.3 462.88,-1046.8"/>
<text text-anchor="middle" x="373.88" y="-1029.5" font-family="monospace" font-size="14.00">extension: builtin_tools</text>
<text text-anchor="middle" x="373.88" y="-1010.75" font-family="monospace" font-size="14.00">11 modules</text>
</g>
<!-- extension.builtin_tools&#45;&gt;core -->
<g id="edge17" class="edge">
<title>extension.builtin_tools&#45;&gt;core</title>
<path fill="none" stroke="black" d="M463.19,-1014.81C497.59,-1011.21 535.69,-1007.23 564.97,-1004.16"/>
<polygon fill="black" stroke="black" points="565.05,-1007.67 574.63,-1003.15 564.32,-1000.71 565.05,-1007.67"/>
</g>
<!-- extension.builtin_tools&#45;&gt;core.extensions -->
<g id="edge18" class="edge">
<title>extension.builtin_tools&#45;&gt;core.extensions</title>
<path fill="none" stroke="black" d="M463.14,-1037.41C550.02,-1048.55 675.17,-1058.62 714,-1031.05 789.95,-977.13 804.79,-856.77 807.35,-797.45"/>
<polygon fill="black" stroke="black" points="810.84,-797.72 807.67,-787.61 803.85,-797.49 810.84,-797.72"/>
</g>
<!-- extension.default_prompt -->
<g id="node8" class="node">
<title>extension.default_prompt</title>
<polygon fill="lightyellow" stroke="black" points="707.25,-613.8 522.5,-613.8 522.5,-568.3 707.25,-568.3 707.25,-613.8"/>
<text text-anchor="middle" x="614.88" y="-596.5" font-family="monospace" font-size="14.00">extension: default_prompt</text>
<text text-anchor="middle" x="614.88" y="-577.75" font-family="monospace" font-size="14.00">2 modules</text>
</g>
<!-- extension.default_prompt&#45;&gt;core.extensions -->
<g id="edge19" class="edge">
<title>extension.default_prompt&#45;&gt;core.extensions</title>
<path fill="none" stroke="black" d="M700.25,-614.24C705.09,-616.88 709.72,-619.8 714,-623.05 750.96,-651.04 778.05,-698.07 793.32,-729.82"/>
<polygon fill="black" stroke="black" points="790.01,-730.99 797.41,-738.57 796.35,-728.03 790.01,-730.99"/>
</g>
<!-- extension.default_prompt&#45;&gt;util -->
<g id="edge20" class="edge">
<title>extension.default_prompt&#45;&gt;util</title>
<path fill="none" stroke="black" d="M707.46,-580.39C721.69,-578.86 736.24,-577.35 750,-576.05 839.18,-567.57 943.15,-559.9 1004.26,-555.62"/>
<polygon fill="black" stroke="black" points="1004.29,-559.13 1014.02,-554.94 1003.8,-552.14 1004.29,-559.13"/>
</g>
<!-- extension.docs -->
<g id="node9" class="node">
<title>extension.docs</title>
<polygon fill="lightyellow" stroke="black" points="432.5,-1174.8 315.25,-1174.8 315.25,-1129.3 432.5,-1129.3 432.5,-1174.8"/>
<text text-anchor="middle" x="373.88" y="-1157.5" font-family="monospace" font-size="14.00">extension: docs</text>
<text text-anchor="middle" x="373.88" y="-1138.75" font-family="monospace" font-size="14.00">2 modules</text>
</g>
<!-- extension.docs&#45;&gt;core -->
<g id="edge21" class="edge">
<title>extension.docs&#45;&gt;core</title>
<path fill="none" stroke="black" d="M432.8,-1139.29C448.61,-1134.51 465.34,-1128.2 479.75,-1120.05 521.62,-1096.35 561.47,-1057.61 586.69,-1030.36"/>
<polygon fill="black" stroke="black" points="589.18,-1032.82 593.32,-1023.07 584,-1028.1 589.18,-1032.82"/>
</g>
<!-- extension.docs&#45;&gt;core.extensions -->
<g id="edge22" class="edge">
<title>extension.docs&#45;&gt;core.extensions</title>
<path fill="none" stroke="black" d="M432.85,-1159.57C507.43,-1165.82 636.56,-1164.52 714,-1095.05 758.75,-1054.9 790.89,-873.54 802.68,-797.14"/>
<polygon fill="black" stroke="black" points="806.13,-797.73 804.17,-787.32 799.21,-796.68 806.13,-797.73"/>
</g>
<!-- extension.docs&#45;&gt;util -->
<g id="edge23" class="edge">
<title>extension.docs&#45;&gt;util</title>
<path fill="none" stroke="black" d="M386.12,-1175.12C406.1,-1213.11 451.79,-1287.55 515.75,-1317.05 661.9,-1384.44 752.36,-1342.75 867.25,-1230.05 937.35,-1161.28 946.72,-1132.43 980,-1040.05 1038.68,-877.17 1052.54,-667.75 1055.78,-586.44"/>
<polygon fill="black" stroke="black" points="1059.27,-586.81 1056.13,-576.69 1052.27,-586.56 1059.27,-586.81"/>
</g>
<!-- extension.handoff -->
<g id="node10" class="node">
<title>extension.handoff</title>
<polygon fill="lightyellow" stroke="black" points="683.62,-919.8 546.12,-919.8 546.12,-874.3 683.62,-874.3 683.62,-919.8"/>
<text text-anchor="middle" x="614.88" y="-902.5" font-family="monospace" font-size="14.00">extension: handoff</text>
<text text-anchor="middle" x="614.88" y="-883.75" font-family="monospace" font-size="14.00">1 modules</text>
</g>
<!-- extension.handoff&#45;&gt;core.extensions -->
<g id="edge24" class="edge">
<title>extension.handoff&#45;&gt;core.extensions</title>
<path fill="none" stroke="black" d="M684.12,-880.2C694.58,-876.11 704.91,-871.12 714,-865.05 734.45,-851.39 733.48,-841.25 750,-823.05 758.62,-813.55 768.19,-803.42 777.02,-794.24"/>
<polygon fill="black" stroke="black" points="779.39,-796.83 783.82,-787.21 774.35,-791.96 779.39,-796.83"/>
</g>
<!-- extension.mem -->
<g id="node11" class="node">
<title>extension.mem</title>
<polygon fill="lightyellow" stroke="black" points="670.12,-855.8 559.62,-855.8 559.62,-810.3 670.12,-810.3 670.12,-855.8"/>
<text text-anchor="middle" x="614.88" y="-838.5" font-family="monospace" font-size="14.00">extension: mem</text>
<text text-anchor="middle" x="614.88" y="-819.75" font-family="monospace" font-size="14.00">2 modules</text>
</g>
<!-- extension.mem&#45;&gt;core.extensions -->
<g id="edge25" class="edge">
<title>extension.mem&#45;&gt;core.extensions</title>
<path fill="none" stroke="black" d="M670.57,-813.08C691.78,-805.34 716.32,-796.38 738.71,-788.2"/>
<polygon fill="black" stroke="black" points="739.9,-791.5 748.09,-784.78 737.5,-784.92 739.9,-791.5"/>
</g>
<!-- extension.print -->
<g id="node12" class="node">
<title>extension.print</title>
<polygon fill="lightyellow" stroke="black" points="435.88,-906.8 311.88,-906.8 311.88,-861.3 435.88,-861.3 435.88,-906.8"/>
<text text-anchor="middle" x="373.88" y="-889.5" font-family="monospace" font-size="14.00">extension: print</text>
<text text-anchor="middle" x="373.88" y="-870.75" font-family="monospace" font-size="14.00">1 modules</text>
</g>
<!-- extension.print&#45;&gt;core -->
<g id="edge26" class="edge">
<title>extension.print&#45;&gt;core</title>
<path fill="none" stroke="black" d="M436.19,-899.8C451.16,-905.19 466.64,-912.18 479.75,-921.05 499.84,-934.63 495.81,-948.25 515.75,-962.05 530.73,-972.42 549,-980.33 565.69,-986.13"/>
<polygon fill="black" stroke="black" points="564.35,-989.37 574.94,-989.17 566.53,-982.72 564.35,-989.37"/>
</g>
<!-- extension.print&#45;&gt;core.extensions -->
<g id="edge27" class="edge">
<title>extension.print&#45;&gt;core.extensions</title>
<path fill="none" stroke="black" d="M436.07,-905.65C466.48,-915.96 500.02,-926.6 515.75,-929.05 602.81,-942.61 642.38,-980.36 714,-929.05 754.44,-900.07 724.15,-865.56 750,-823.05 756.25,-812.76 764.55,-802.81 772.88,-794.07"/>
<polygon fill="black" stroke="black" points="775.19,-796.72 779.76,-787.16 770.23,-791.78 775.19,-796.72"/>
</g>
<!-- extension.provider_anthropic -->
<g id="node13" class="node">
<title>extension.provider_anthropic</title>
<polygon fill="lightyellow" stroke="black" points="479.75,-166.8 268,-166.8 268,-121.3 479.75,-121.3 479.75,-166.8"/>
<text text-anchor="middle" x="373.88" y="-149.5" font-family="monospace" font-size="14.00">extension: provider_anthropic</text>
<text text-anchor="middle" x="373.88" y="-130.75" font-family="monospace" font-size="14.00">2 modules</text>
</g>
<!-- extension.provider_anthropic&#45;&gt;core -->
<g id="edge28" class="edge">
<title>extension.provider_anthropic&#45;&gt;core</title>
<path fill="none" stroke="black" d="M394.24,-167.26C419.18,-198.71 461.48,-257.63 479.75,-316.05 520.48,-446.28 449.74,-809.62 515.75,-929.05 527.04,-949.48 547.13,-965.39 566.19,-976.85"/>
<polygon fill="black" stroke="black" points="564.28,-979.79 574.71,-981.69 567.74,-973.71 564.28,-979.79"/>
</g>
<!-- extension.provider_anthropic&#45;&gt;core.extensions -->
<g id="edge29" class="edge">
<title>extension.provider_anthropic&#45;&gt;core.extensions</title>
<path fill="none" stroke="black" d="M393.7,-167.1C418.24,-198.59 460.32,-257.82 479.75,-316.05 505.97,-394.62 459.21,-626.51 515.75,-687.05 576.72,-752.32 628.61,-693.84 714,-720.05 727.09,-724.06 740.73,-729.52 753.41,-735.21"/>
<polygon fill="black" stroke="black" points="751.89,-738.36 762.43,-739.37 754.82,-732 751.89,-738.36"/>
</g>
<!-- extension.provider_anthropic&#45;&gt;core.llm -->
<g id="edge30" class="edge">
<title>extension.provider_anthropic&#45;&gt;core.llm</title>
<path fill="none" stroke="black" d="M480.01,-142.79C550.52,-146.31 643.09,-159.69 714,-201.05 889.64,-303.48 929.58,-580.51 938.3,-677.75"/>
<polygon fill="black" stroke="black" points="934.78,-677.77 939.1,-687.44 941.76,-677.19 934.78,-677.77"/>
</g>
<!-- extension.provider_anthropic&#45;&gt;util -->
<g id="edge31" class="edge">
<title>extension.provider_anthropic&#45;&gt;util</title>
<path fill="none" stroke="black" d="M403.53,-120.89C430.61,-100.61 473.3,-72.62 515.75,-61.05 600.76,-37.87 630.73,-32.25 714,-61.05 856.09,-110.19 896.94,-144.72 980,-270.05 1031.97,-348.46 1048.92,-461.2 1054.31,-517.42"/>
<polygon fill="black" stroke="black" points="1050.82,-517.69 1055.19,-527.34 1057.8,-517.07 1050.82,-517.69"/>
</g>
<!-- util.http -->
<g id="node23" class="node">
<title>util.http</title>
<polygon fill="white" stroke="black" points="653.25,-115.8 576.5,-115.8 576.5,-70.3 653.25,-70.3 653.25,-115.8"/>
<text text-anchor="middle" x="614.88" y="-98.5" font-family="monospace" font-size="14.00">util.http</text>
<text text-anchor="middle" x="614.88" y="-79.75" font-family="monospace" font-size="14.00">3 modules</text>
</g>
<!-- extension.provider_anthropic&#45;&gt;util.http -->
<g id="edge32" class="edge">
<title>extension.provider_anthropic&#45;&gt;util.http</title>
<path fill="none" stroke="black" d="M480.05,-121.6C509.67,-115.28 540.49,-108.71 565.07,-103.46"/>
<polygon fill="black" stroke="black" points="565.72,-106.9 574.77,-101.39 564.26,-100.05 565.72,-106.9"/>
</g>
<!-- extension.provider_openai -->
<g id="node14" class="node">
<title>extension.provider_openai</title>
<polygon fill="lightyellow" stroke="black" points="469.62,-370.8 278.12,-370.8 278.12,-325.3 469.62,-325.3 469.62,-370.8"/>
<text text-anchor="middle" x="373.88" y="-353.5" font-family="monospace" font-size="14.00">extension: provider_openai</text>
<text text-anchor="middle" x="373.88" y="-334.75" font-family="monospace" font-size="14.00">4 modules</text>
</g>
<!-- extension.provider_openai&#45;&gt;core -->
<g id="edge33" class="edge">
<title>extension.provider_openai&#45;&gt;core</title>
<path fill="none" stroke="black" d="M378.26,-371.02C392.67,-466.78 451.22,-833.61 515.75,-929.05 528.47,-947.86 548.03,-963.3 566.35,-974.84"/>
<polygon fill="black" stroke="black" points="564.4,-977.75 574.77,-979.91 568.01,-971.75 564.4,-977.75"/>
</g>
<!-- extension.provider_openai&#45;&gt;core.extensions -->
<g id="edge34" class="edge">
<title>extension.provider_openai&#45;&gt;core.extensions</title>
<path fill="none" stroke="black" d="M375.94,-370.96C380.35,-437.05 402.76,-629.14 515.75,-720.05 549.06,-746.85 663.03,-756.98 738.31,-760.79"/>
<polygon fill="black" stroke="black" points="737.91,-764.27 748.07,-761.25 738.25,-757.28 737.91,-764.27"/>
</g>
<!-- extension.provider_openai&#45;&gt;core.llm -->
<g id="edge35" class="edge">
<title>extension.provider_openai&#45;&gt;core.llm</title>
<path fill="none" stroke="black" d="M469.8,-344C555.43,-342.02 673.89,-343.93 714,-367.05 837.18,-438.03 905.54,-606.18 930.07,-678.28"/>
<polygon fill="black" stroke="black" points="926.68,-679.17 933.16,-687.56 933.32,-676.96 926.68,-679.17"/>
</g>
<!-- extension.provider_openai&#45;&gt;util -->
<g id="edge36" class="edge">
<title>extension.provider_openai&#45;&gt;util</title>
<path fill="none" stroke="black" d="M388.37,-324.91C410.09,-290.29 456.42,-226.37 515.75,-201.05 596.79,-166.46 628.01,-181.85 714,-201.05 847.54,-230.85 896.68,-247.51 980,-356.05 1017.96,-405.49 1039.4,-476.05 1049.49,-517.65"/>
<polygon fill="black" stroke="black" points="1046.07,-518.4 1051.75,-527.35 1052.89,-516.81 1046.07,-518.4"/>
</g>
<!-- extension.provider_openai&#45;&gt;util.http -->
<g id="edge37" class="edge">
<title>extension.provider_openai&#45;&gt;util.http</title>
<path fill="none" stroke="black" d="M390.11,-324.94C414.31,-289.14 464.11,-219.1 515.75,-168.05 532.37,-151.62 552.63,-135.58 570.41,-122.58"/>
<polygon fill="black" stroke="black" points="572.15,-125.64 578.22,-116.96 568.06,-119.96 572.15,-125.64"/>
</g>
<!-- extension.provider_openai_codex -->
<g id="node15" class="node">
<title>extension.provider_openai_codex</title>
<polygon fill="lightyellow" stroke="black" points="232,-370.8 0,-370.8 0,-325.3 232,-325.3 232,-370.8"/>
<text text-anchor="middle" x="116" y="-353.5" font-family="monospace" font-size="14.00">extension: provider_openai_codex</text>
<text text-anchor="middle" x="116" y="-334.75" font-family="monospace" font-size="14.00">5 modules</text>
</g>
<!-- extension.provider_openai_codex&#45;&gt;core -->
<g id="edge38" class="edge">
<title>extension.provider_openai_codex&#45;&gt;core</title>
<path fill="none" stroke="black" d="M119.99,-371.26C132.92,-467.89 186.95,-836.94 268,-916.05 268.34,-916.38 469.98,-964.63 565.18,-987.4"/>
<polygon fill="black" stroke="black" points="564.23,-990.78 574.77,-989.7 565.86,-983.97 564.23,-990.78"/>
</g>
<!-- extension.provider_openai_codex&#45;&gt;core.extensions -->
<g id="edge39" class="edge">
<title>extension.provider_openai_codex&#45;&gt;core.extensions</title>
<path fill="none" stroke="black" d="M130.5,-371.16C174.6,-444.11 322.75,-669.56 515.75,-754.05 586.91,-785.19 677.44,-782.28 738.66,-774.92"/>
<polygon fill="black" stroke="black" points="738.77,-778.44 748.24,-773.7 737.88,-771.5 738.77,-778.44"/>
</g>
<!-- extension.provider_openai_codex&#45;&gt;extension.provider_openai -->
<g id="edge40" class="edge">
<title>extension.provider_openai_codex&#45;&gt;extension.provider_openai</title>
<path fill="none" stroke="black" d="M232.21,-348.05C243.65,-348.05 255.23,-348.05 266.58,-348.05"/>
<polygon fill="black" stroke="black" points="266.31,-351.55 276.31,-348.05 266.31,-344.55 266.31,-351.55"/>
</g>
<!-- extension.provider_openai_codex&#45;&gt;util -->
<g id="edge41" class="edge">
<title>extension.provider_openai_codex&#45;&gt;util</title>
<path fill="none" stroke="black" d="M122.18,-325.1C135.74,-270.77 177.6,-133.9 268,-68.05 394.36,24 457.54,-4.05 613.88,-4.05 613.88,-4.05 613.88,-4.05 809.62,-4.05 1035.89,-4.05 1056.16,-397.09 1057.06,-517.44"/>
<polygon fill="black" stroke="black" points="1053.56,-517.35 1057.08,-527.34 1060.56,-517.33 1053.56,-517.35"/>
</g>
<!-- extension.provider_openai_codex&#45;&gt;util.http -->
<g id="edge42" class="edge">
<title>extension.provider_openai_codex&#45;&gt;util.http</title>
<path fill="none" stroke="black" d="M123.81,-325.04C139.75,-275.8 184.61,-160.71 268,-112.05 361.36,-57.57 494.13,-70.22 564.94,-82.6"/>
<polygon fill="black" stroke="black" points="564.22,-86.02 574.69,-84.38 565.48,-79.14 564.22,-86.02"/>
</g>
<!-- extension.session_jsonl -->
<g id="node16" class="node">
<title>extension.session_jsonl</title>
<polygon fill="lightyellow" stroke="black" points="703.88,-549.8 525.88,-549.8 525.88,-504.3 703.88,-504.3 703.88,-549.8"/>
<text text-anchor="middle" x="614.88" y="-532.5" font-family="monospace" font-size="14.00">extension: session_jsonl</text>
<text text-anchor="middle" x="614.88" y="-513.75" font-family="monospace" font-size="14.00">2 modules</text>
</g>
<!-- extension.session_jsonl&#45;&gt;core.extensions -->
<g id="edge43" class="edge">
<title>extension.session_jsonl&#45;&gt;core.extensions</title>
<path fill="none" stroke="black" d="M702.37,-550.24C706.51,-552.86 710.42,-555.79 714,-559.05 743.74,-586.11 733.35,-605.45 750,-642.05 763.59,-671.94 779.71,-705.64 791.44,-729.87"/>
<polygon fill="black" stroke="black" points="788.16,-731.13 795.67,-738.6 794.46,-728.08 788.16,-731.13"/>
</g>
<!-- extension.session_jsonl&#45;&gt;util -->
<g id="edge44" class="edge">
<title>extension.session_jsonl&#45;&gt;util</title>
<path fill="none" stroke="black" d="M704.05,-526.01C777.95,-526.03 886.13,-528.12 980,-538.05 988.06,-538.9 996.54,-540.12 1004.81,-541.48"/>
<polygon fill="black" stroke="black" points="1003.94,-544.89 1014.4,-543.16 1005.15,-537.99 1003.94,-544.89"/>
</g>
<!-- extension.skills -->
<g id="node17" class="node">
<title>extension.skills</title>
<polygon fill="lightyellow" stroke="black" points="680.25,-485.8 549.5,-485.8 549.5,-440.3 680.25,-440.3 680.25,-485.8"/>
<text text-anchor="middle" x="614.88" y="-468.5" font-family="monospace" font-size="14.00">extension: skills</text>
<text text-anchor="middle" x="614.88" y="-449.75" font-family="monospace" font-size="14.00">2 modules</text>
</g>
<!-- extension.skills&#45;&gt;core.extensions -->
<g id="edge45" class="edge">
<title>extension.skills&#45;&gt;core.extensions</title>
<path fill="none" stroke="black" d="M680.72,-473.93C693.14,-478.64 705.04,-485.39 714,-495.05 759.74,-544.36 727.42,-578.69 750,-642.05 760.95,-672.79 777.2,-706.16 789.65,-730.06"/>
<polygon fill="black" stroke="black" points="786.43,-731.45 794.2,-738.66 792.62,-728.19 786.43,-731.45"/>
</g>
<!-- extension.skills&#45;&gt;util -->
<g id="edge46" class="edge">
<title>extension.skills&#45;&gt;util</title>
<path fill="none" stroke="black" d="M680.52,-472.06C753.72,-482.85 876.3,-502.68 980,-528.05 988.02,-530.01 996.43,-532.34 1004.62,-534.78"/>
<polygon fill="black" stroke="black" points="1003.56,-538.11 1014.15,-537.68 1005.6,-531.42 1003.56,-538.11"/>
</g>
<!-- extension.stdio -->
<g id="node18" class="node">
<title>extension.stdio</title>
<polygon fill="lightyellow" stroke="black" points="676.88,-421.8 552.88,-421.8 552.88,-376.3 676.88,-376.3 676.88,-421.8"/>
<text text-anchor="middle" x="614.88" y="-404.5" font-family="monospace" font-size="14.00">extension: stdio</text>
<text text-anchor="middle" x="614.88" y="-385.75" font-family="monospace" font-size="14.00">1 modules</text>
</g>
<!-- extension.stdio&#45;&gt;core.extensions -->
<g id="edge47" class="edge">
<title>extension.stdio&#45;&gt;core.extensions</title>
<path fill="none" stroke="black" d="M677.19,-407.97C691.04,-412.73 704.46,-419.99 714,-431.05 776.17,-503.05 721.28,-551.35 750,-642.05 759.85,-673.16 776.2,-706.49 788.98,-730.28"/>
<polygon fill="black" stroke="black" points="785.79,-731.75 793.66,-738.85 791.94,-728.4 785.79,-731.75"/>
</g>
<!-- extension.stdio&#45;&gt;util -->
<g id="edge48" class="edge">
<title>extension.stdio&#45;&gt;util</title>
<path fill="none" stroke="black" d="M677.3,-412.85C750.92,-430.43 877.23,-463.9 980,-508.05 990.27,-512.46 1000.9,-517.91 1010.85,-523.47"/>
<polygon fill="black" stroke="black" points="1008.82,-526.33 1019.23,-528.26 1012.29,-520.26 1008.82,-526.33"/>
</g>
<!-- extension.tui -->
<g id="node19" class="node">
<title>extension.tui</title>
<polygon fill="lightyellow" stroke="black" points="670.12,-319.8 559.62,-319.8 559.62,-274.3 670.12,-274.3 670.12,-319.8"/>
<text text-anchor="middle" x="614.88" y="-302.5" font-family="monospace" font-size="14.00">extension: tui</text>
<text text-anchor="middle" x="614.88" y="-283.75" font-family="monospace" font-size="14.00">12 modules</text>
</g>
<!-- extension.tui&#45;&gt;core.extensions -->
<g id="edge49" class="edge">
<title>extension.tui&#45;&gt;core.extensions</title>
<path fill="none" stroke="black" d="M661.93,-320.27C680.69,-331.9 700.99,-347.68 714,-367.05 791.82,-482.86 805.29,-655.68 807.38,-728.61"/>
<polygon fill="black" stroke="black" points="803.88,-728.4 807.6,-738.32 810.88,-728.24 803.88,-728.4"/>
</g>
<!-- extension.tui&#45;&gt;util -->
<g id="edge50" class="edge">
<title>extension.tui&#45;&gt;util</title>
<path fill="none" stroke="black" d="M670.6,-316.25C745.06,-343.96 880.42,-400.06 980,-474.05 998.27,-487.62 1016.25,-505.57 1030.21,-520.83"/>
<polygon fill="black" stroke="black" points="1027.23,-522.76 1036.52,-527.86 1032.44,-518.08 1027.23,-522.76"/>
</g>
<!-- extension.web -->
<g id="node20" class="node">
<title>extension.web</title>
<polygon fill="lightyellow" stroke="black" points="670.12,-255.8 559.62,-255.8 559.62,-210.3 670.12,-210.3 670.12,-255.8"/>
<text text-anchor="middle" x="614.88" y="-238.5" font-family="monospace" font-size="14.00">extension: web</text>
<text text-anchor="middle" x="614.88" y="-219.75" font-family="monospace" font-size="14.00">6 modules</text>
</g>
<!-- extension.web&#45;&gt;core.extensions -->
<g id="edge51" class="edge">
<title>extension.web&#45;&gt;core.extensions</title>
<path fill="none" stroke="black" d="M670.42,-239.99C686.53,-244.63 702.83,-252.32 714,-265.05 775.23,-334.76 799.12,-627.67 805.63,-728.65"/>
<polygon fill="black" stroke="black" points="802.13,-728.71 806.25,-738.48 809.12,-728.28 802.13,-728.71"/>
</g>
<!-- extension.web&#45;&gt;util -->
<g id="edge52" class="edge">
<title>extension.web&#45;&gt;util</title>
<path fill="none" stroke="black" d="M670.33,-248.42C748.53,-273.04 892.78,-328.32 980,-422.05 1006.91,-450.97 1028.74,-490.91 1042.14,-518.86"/>
<polygon fill="black" stroke="black" points="1038.81,-519.99 1046.22,-527.56 1045.15,-517.02 1038.81,-519.99"/>
</g>
<!-- testing -->
<g id="node21" class="node">
<title>testing</title>
<polygon fill="white" stroke="black" points="154.38,-1135.8 77.62,-1135.8 77.62,-1090.3 154.38,-1090.3 154.38,-1135.8"/>
<text text-anchor="middle" x="116" y="-1118.5" font-family="monospace" font-size="14.00">testing</text>
<text text-anchor="middle" x="116" y="-1099.75" font-family="monospace" font-size="14.00">3 modules</text>
</g>
<!-- testing&#45;&gt;core -->
<g id="edge53" class="edge">
<title>testing&#45;&gt;core</title>
<path fill="none" stroke="black" d="M136.35,-1089.97C162.62,-1060.64 212.69,-1011.47 268,-992.05 368.91,-956.6 496.81,-973.86 565.3,-987.65"/>
<polygon fill="black" stroke="black" points="564.19,-990.99 574.7,-989.6 565.62,-984.14 564.19,-990.99"/>
</g>
<!-- testing&#45;&gt;core.extensions -->
<g id="edge54" class="edge">
<title>testing&#45;&gt;core.extensions</title>
<path fill="none" stroke="black" d="M154.12,-1136.18C183.71,-1153.18 226.86,-1174.86 268,-1184.05 365.16,-1205.75 641.37,-1210.12 714,-1142.05 764.54,-1094.67 794.06,-881.3 803.91,-797.24"/>
<polygon fill="black" stroke="black" points="807.36,-797.88 805.02,-787.54 800.4,-797.08 807.36,-797.88"/>
</g>
<!-- testing&#45;&gt;extension.builtin_tools -->
<g id="edge55" class="edge">
<title>testing&#45;&gt;extension.builtin_tools</title>
<path fill="none" stroke="black" d="M154.61,-1098.07C185.01,-1086.16 229.01,-1069.34 268,-1056.05 273.27,-1054.25 278.71,-1052.45 284.2,-1050.66"/>
<polygon fill="black" stroke="black" points="284.91,-1054.11 293.37,-1047.72 282.77,-1047.44 284.91,-1054.11"/>
</g>
<!-- testing&#45;&gt;util -->
<g id="edge56" class="edge">
<title>testing&#45;&gt;util</title>
<path fill="none" stroke="black" d="M139.92,-1136.27C206.58,-1201.23 408.71,-1380.05 613.88,-1380.05 613.88,-1380.05 613.88,-1380.05 809.62,-1380.05 944.45,-1380.05 931.96,-1255.03 980,-1129.05 1054.34,-934.08 1058.69,-678.26 1057.59,-586.58"/>
<polygon fill="black" stroke="black" points="1061.09,-586.7 1057.44,-576.76 1054.09,-586.81 1061.09,-586.7"/>
</g>
</g>
</svg>
